<svg xmlns="http://www.w3.org/2000/svg" width="79" height="14" viewBox="0 0 79 14">
    <path fill="#FFF" fill-rule="evenodd" d="M5.397 0c2.885 0 5.591 1.433 5.575 4.709V9.4c0 3.213-2.706 4.615-5.591 4.599H0v-3.323h5.51c1.248 0 1.816-.614 1.816-1.527V4.787c0-.913-.6-1.48-1.816-1.48H3.598v5.7L.016 5.875V0h5.38zM33.31 9.349c0 1.642 3.291 2.103 4.077.215l3.21 1.381C39.385 13.155 37.191 14 35.357 14c-2.85 0-5.732-1.55-5.732-4.651V4.65c0-3.07 2.882-4.651 5.797-4.651 1.785 0 3.93.706 5.11 3.132l-2.997 1.136c-.983-1.69-4.225-1.305-4.225.383V9.35zm-9.67-4.043c2.52.444 5.04 1.288 4.88 4.615C28.41 12.56 25.523 14 22.923 14c-1.691 0-3.494-.828-4.818-2.469l2.265-2.04c1.42 1.657 4.547 1.734 4.642.277.032-.767-1.26-1.212-2.424-1.365-2.282-.337-4.355-1.733-4.355-4.324 0-2.668 2.52-4.079 5.12-4.079 1.707 0 3.366.46 4.834 2.177L25.84 3.91c-1.484-1.518-4.02-1.457-4.084.123.048.66.782 1.043 1.882 1.273zM12.617 14V0h3.84v14h-3.84zM73.417 0C76.297 0 79 1.433 79 4.709V9.4c0 3.213-2.703 4.615-5.583 4.599h-5.39v-3.323h5.503c1.246 0 1.813-.614 1.813-1.527V4.787c0-.913-.6-1.48-1.813-1.48h-1.91v5.7l-3.576-3.133V0h5.373zM47.164 0c3.018 0 6.051 1.549 6.051 4.677v4.646c0 3.113-3 4.677-6.018 4.677-3.034 0-6.051-1.564-6.051-4.677V4.677c0-3.144 3-4.677 6.018-4.677zm2.211 9.307V4.738c0-1.04-1.132-1.507-2.248-1.507-1.07 0-2.14.527-2.14 1.507v4.569c0 .995 1.1 1.462 2.201 1.462 1.086 0 2.187-.497 2.187-1.462zm17.014-4.703c0 2.585-1.074 4.051-2.789 4.587L67.48 14H62.99L59.69 9.554h-.64V14h-3.64V0h5.69c2.934 0 5.21 1.324 5.29 4.604zm-5.555 1.858c2.277 0 2.277-3.231 0-3.231H58.7v3.23h2.133z"/>
</svg>
