<svg xmlns="http://www.w3.org/2000/svg" xmlns:xlink="http://www.w3.org/1999/xlink" width="112" height="121" viewBox="0 0 112 121">
    <defs>
        <radialGradient id="prefix__d" cx="50%" cy="100%" r="100%" fx="50%" fy="100%" gradientTransform="matrix(0 -1 .64103 0 -.141 1.5)">
            <stop offset="0%" stop-color="#FCF7E9"/>
            <stop offset="100%" stop-color="#B8A978"/>
        </radialGradient>
        <linearGradient id="prefix__c" x1="50%" x2="50%" y1="100%" y2="0%">
            <stop offset="0%" stop-color="#FCF7E9"/>
            <stop offset="100%" stop-color="#A4935F"/>
        </linearGradient>
        <filter id="prefix__a" width="452.5%" height="650.9%" x="-176.3%" y="-266.9%" filterUnits="objectBoundingBox">
            <feMorphology in="SourceAlpha" operator="dilate" radius="2" result="shadowSpreadOuter1"/>
            <feOffset dy="2" in="shadowSpreadOuter1" result="shadowOffsetOuter1"/>
            <feGaussianBlur in="shadowOffsetOuter1" result="shadowBlurOuter1" stdDeviation="22"/>
            <feComposite in="shadowBlurOuter1" in2="SourceAlpha" operator="out" result="shadowBlurOuter1"/>
            <feColorMatrix in="shadowBlurOuter1" values="0 0 0 0 0.198208971 0 0 0 0 0.194124053 0 0 0 0 0.175646121 0 0 0 0.832144475 0"/>
        </filter>
        <path id="prefix__b" d="M14.076 8.049l17.45 22.335c.34.436.263 1.064-.172 1.404-.176.137-.392.212-.615.212H-5.74c-.552 0-1-.448-1-1 0-.223.075-.44.212-.616L10.924 8.05c.68-.87 1.937-1.025 2.807-.345.129.1.245.216.345.345z"/>
    </defs>
    <g fill="none" fill-rule="evenodd" transform="rotate(90 16 64)">
        <use fill="#000" filter="url(#prefix__a)" xlink:href="#prefix__b"/>
        <path fill="url(#prefix__d)" stroke="url(#prefix__c)" stroke-width="2" d="M14.864 7.433l17.45 22.336c.68.87.526 2.127-.344 2.807-.352.275-.785.424-1.231.424H-5.74c-1.104 0-2-.895-2-2 0-.446.15-.88.424-1.231l17.45-22.336c1.021-1.306 2.906-1.537 4.212-.517.193.15.366.324.517.517z"/>
    </g>
</svg>
