<svg xmlns="http://www.w3.org/2000/svg" xmlns:xlink="http://www.w3.org/1999/xlink" width="435" height="326" viewBox="0 0 435 326">
    <defs>
        <linearGradient id="prefix__a" x1="50%" x2="50%" y1="100%" y2="0%">
            <stop offset="0%" stop-color="#396DA1"/>
            <stop offset="100%" stop-color="#2B5375"/>
        </linearGradient>
        <linearGradient id="prefix__d" x1="50%" x2="50%" y1="0%" y2="100%">
            <stop offset="0%" stop-color="#518EC7"/>
            <stop offset="100%" stop-color="#1C3754"/>
        </linearGradient>
        <linearGradient id="prefix__i" x1="50%" x2="50%" y1="100%" y2="0%">
            <stop offset="0%" stop-color="#396DA1" stop-opacity=".4"/>
            <stop offset="100%" stop-color="#2B5375" stop-opacity=".4"/>
        </linearGradient>
        <filter id="prefix__c" width="107.6%" height="110.4%" x="-3.8%" y="-5.2%" filterUnits="objectBoundingBox">
            <feGaussianBlur in="SourceAlpha" result="shadowBlurInner1" stdDeviation="15"/>
            <feOffset dy="1" in="shadowBlurInner1" result="shadowOffsetInner1"/>
            <feComposite in="shadowOffsetInner1" in2="SourceAlpha" k2="-1" k3="1" operator="arithmetic" result="shadowInnerInner1"/>
            <feColorMatrix in="shadowInnerInner1" values="0 0 0 0 0.127684666 0 0 0 0 0.261057291 0 0 0 0 0.386346726 0 0 0 1 0"/>
        </filter>
        <filter id="prefix__f" width="110.2%" height="109.8%" x="-5.1%" y="-4.9%" filterUnits="objectBoundingBox">
            <feGaussianBlur in="SourceAlpha" result="shadowBlurInner1" stdDeviation="15"/>
            <feOffset dy="1" in="shadowBlurInner1" result="shadowOffsetInner1"/>
            <feComposite in="shadowOffsetInner1" in2="SourceAlpha" k2="-1" k3="1" operator="arithmetic" result="shadowInnerInner1"/>
            <feColorMatrix in="shadowInnerInner1" values="0 0 0 0 0.127684666 0 0 0 0 0.261057291 0 0 0 0 0.386346726 0 0 0 1 0"/>
        </filter>
        <filter id="prefix__g" width="108.3%" height="111.2%" x="-4.2%" y="-4.9%" filterUnits="objectBoundingBox">
            <feMorphology in="SourceAlpha" operator="dilate" radius="1" result="shadowSpreadOuter1"/>
            <feOffset dy="2" in="shadowSpreadOuter1" result="shadowOffsetOuter1"/>
            <feGaussianBlur in="shadowOffsetOuter1" result="shadowBlurOuter1" stdDeviation="5"/>
            <feComposite in="shadowBlurOuter1" in2="SourceAlpha" operator="out" result="shadowBlurOuter1"/>
            <feColorMatrix in="shadowBlurOuter1" values="0 0 0 0 0.0604921528 0 0 0 0 0.217898039 0 0 0 0 0.355628189 0 0 0 0.526777627 0"/>
        </filter>
        <path id="prefix__b" d="M433 109.9L433 204.1 426.461 210.645 426.461 300.3 409.471 316 367.943 316 65.057 316 23.529 316 6.539 300.3 6.539 210.645 0 204.1 0 109.9 6.539 103.365 6.539 15.7 23.529 0 63.685 0 369.315 0 409.471 0 426.461 15.7 426.461 103.365z"/>
        <path id="prefix__e" d="M433 109.9L433 204.1 426.465 210.645 426.465 300.3 409.487 316 367.985 316 130 316 282.291 0 369.357 0 409.487 0 426.465 15.7 426.465 103.365z"/>
        <path id="prefix__h" d="M421 294L403.684 310 369.352 310 353.385 298.58 79.615 298.58 63.648 310 29.316 310 12 294 12 22 29.316 6 62.249 6 79.615 18.59 353.385 18.59 370.751 6 403.684 6 421 22z"/>
    </defs>
    <g fill="none" fill-rule="evenodd" transform="translate(1 3)">
        <g opacity=".4">
            <use fill="url(#prefix__a)" xlink:href="#prefix__b"/>
            <use fill="#000" filter="url(#prefix__c)" xlink:href="#prefix__b"/>
            <use stroke="url(#prefix__d)" stroke-width="2" xlink:href="#prefix__b"/>
        </g>
        <g opacity=".2">
            <use fill="url(#prefix__a)" xlink:href="#prefix__e"/>
            <use fill="#000" filter="url(#prefix__f)" xlink:href="#prefix__e"/>
        </g>
        <use fill="#000" filter="url(#prefix__g)" xlink:href="#prefix__h"/>
        <use fill="#1D374E" stroke="url(#prefix__i)" stroke-width="2" xlink:href="#prefix__h"/>
    </g>
</svg>
