<svg xmlns="http://www.w3.org/2000/svg" width="17" height="23" viewBox="0 0 17 23">
    <path fill="#FFF" fill-rule="evenodd" d="M12.295 15.941c-.308.345-.705.563-1.196.652-.319.066-.584.1-1.771.1H6.524v-4.362h2.415c1.498 0 1.985.08 2.433.233.448.156.791.405 1.027.747.24.34.359.756.359 1.247 0 .576-.156 1.04-.463 1.383zM8.172 5.846c1.55 0 2 .019 2.326.055.549.066.963.258 1.242.574.276.313.415.724.415 1.227 0 .528-.161.954-.483 1.275-.322.323-.767.518-1.329.584-.313.037-.621.057-1.904.057H6.524V5.846h1.648zm7.675 6.408c-.534-.696-1.297-1.192-2.291-1.48.705-.319 1.264-.799 1.675-1.436.411-.636.616-1.338.616-2.102 0-.704-.165-1.341-.5-1.908-.334-.568-.751-1.022-1.251-1.362-.5-.342-1.068-.566-1.703-.673-.452-.077-1.079-.125-1.865-.146V0h-2.47v3.132H6.451V0h-2.44v3.132H0v2.714h1.617c.622 0 1.126.505 1.126 1.127v8.625c0 .622-.504 1.127-1.126 1.127H0v2.714h4.011v2.955h2.44v-2.955h1.607v2.955h2.47v-2.981c.954-.02 1.638-.047 1.982-.084.874-.097 1.612-.353 2.208-.773.599-.419 1.068-.98 1.414-1.679.344-.703.517-1.424.517-2.164 0-.942-.268-1.763-.802-2.459z" opacity=".4"/>
</svg>
