<svg xmlns="http://www.w3.org/2000/svg" xmlns:xlink="http://www.w3.org/1999/xlink" width="39" height="31" viewBox="0 0 39 31">
    <defs>
        <path id="wd9bfuqh4a" d="M0.279 0.049L1.267 0.049 1.267 0.914 0.279 0.914z"/>
        <path id="w65vxzgric" d="M0.179 0.389L19.424 0.389 19.424 24.096 0.179 24.096z"/>
    </defs>
    <g fill="none" fill-rule="evenodd" opacity=".5">
        <path fill="#FFF" d="M38.09 30.104c.052 0 .102.01.148.03.046.019.087.046.121.079.035.034.062.073.081.118.02.045.03.093.03.144 0 .05-.01.099-.03.144-.019.045-.046.085-.08.118-.035.034-.076.06-.122.08-.046.02-.096.03-.148.03-.054 0-.105-.01-.152-.03-.046-.02-.087-.046-.12-.08-.036-.033-.063-.073-.082-.118-.02-.045-.03-.093-.03-.144 0-.051.01-.1.03-.144.02-.045.046-.084.081-.118.034-.033.075-.06.121-.08.047-.02.098-.03.152-.03zm0 .104c-.038 0-.074.007-.107.02-.032.015-.06.034-.085.058-.024.024-.043.052-.057.085-.014.033-.02.067-.02.104 0 .038.006.073.02.105.014.033.033.06.057.085.024.024.053.043.085.058.033.014.07.02.107.02.036 0 .071-.006.104-.02.032-.015.06-.034.084-.058.024-.024.043-.052.057-.085.014-.032.02-.067.02-.105 0-.037-.006-.071-.02-.104s-.033-.061-.057-.085c-.024-.024-.052-.043-.084-.057-.033-.014-.068-.021-.104-.021zm-12.608-2.87c.243 0 .469.042.676.126.104.042.2.093.29.15l.13.093-.332.55c-.094-.084-.205-.151-.333-.199-.089-.032-.182-.055-.28-.066l-.151-.008-.137.008c-.09.011-.174.034-.254.066-.121.05-.225.119-.313.207-.087.088-.157.195-.207.318-.05.124-.075.26-.075.41 0 .148.025.284.075.408.05.123.12.23.207.319.088.088.192.157.313.207.08.032.165.054.254.065l.137.008.151-.008c.098-.01.191-.033.28-.065.085-.032.163-.072.233-.12l.1-.08.331.55c-.124.1-.263.18-.42.244-.206.084-.432.126-.675.126-.244 0-.469-.042-.676-.126-.207-.085-.386-.2-.536-.349-.15-.147-.268-.322-.354-.523-.085-.202-.128-.42-.128-.656 0-.237.043-.456.128-.657.086-.201.204-.376.354-.524.15-.148.329-.264.536-.348.207-.084.432-.126.676-.126zm-16.344 0c.226 0 .42.041.583.126.121.063.228.142.32.237l.087.1v-.38h.688v3.144h-.688v-.377c-.11.14-.245.251-.407.334-.163.083-.357.125-.583.125-.221 0-.428-.04-.618-.123-.191-.082-.357-.196-.5-.343-.143-.146-.254-.321-.336-.523-.081-.203-.122-.425-.122-.666 0-.24.04-.462.122-.665.082-.202.193-.377.336-.523.143-.147.309-.261.5-.343.19-.082.397-.123.618-.123zm27.452-1.196v4.423h-.688v-.377c-.11.14-.245.251-.407.334-.163.083-.357.125-.583.125-.222 0-.428-.04-.619-.123-.19-.082-.357-.196-.5-.343-.142-.146-.254-.321-.335-.523-.081-.203-.122-.425-.122-.666 0-.24.04-.462.122-.665.081-.202.193-.377.335-.523.143-.147.31-.261.5-.343.191-.082.397-.123.62-.123.225 0 .419.041.582.126.121.063.228.142.32.237l.087.1v-1.66h.688zm-20.493.326v.951h1.104v.625h-1.104v1.369c0 .104.013.194.04.269.026.074.062.135.107.182.045.047.098.082.157.103.061.023.126.033.196.033.108 0 .217-.02.328-.062l.108-.045.102-.05.235.574c-.091.051-.189.098-.293.138-.16.06-.34.092-.539.092-.358 0-.635-.1-.833-.298-.17-.17-.268-.42-.292-.75l-.006-.173v-1.382h-.629v-.625h.629v-.951h.69zm12.463.87c.225 0 .419.041.582.126.121.063.228.142.32.237l.087.1v-.38h.688v3.144h-.688v-.377c-.109.14-.245.251-.407.334-.163.083-.357.125-.582.125-.222 0-.429-.04-.62-.123-.19-.082-.356-.196-.5-.343-.141-.146-.254-.321-.335-.523-.081-.203-.122-.425-.122-.666 0-.24.04-.462.122-.665.08-.202.194-.377.336-.523.143-.147.31-.261.5-.343.19-.082.397-.123.619-.123zm-9.22 0c.22 0 .421.04.604.12.183.08.34.192.47.338.13.145.233.32.307.521.073.203.11.427.11.672 0 .044-.001.088-.004.131l-.004.064-.005.061h-2.33c.022.142.062.264.122.365.06.1.13.183.213.248.085.064.177.111.28.143.104.03.211.045.323.045.158 0 .316-.029.476-.087.105-.039.205-.088.3-.147l.136-.098.341.49c-.192.164-.397.28-.614.345-.215.066-.442.098-.682.098-.237 0-.454-.04-.651-.118-.198-.079-.368-.19-.51-.335-.143-.144-.253-.319-.333-.522-.079-.203-.118-.43-.118-.68 0-.245.038-.47.116-.673.076-.203.183-.378.322-.523.138-.146.302-.259.495-.338.191-.08.404-.12.636-.12zm-6.426.003c.248 0 .481.03.7.087.165.044.314.1.448.17l.129.075-.297.534c-.048-.027-.107-.058-.177-.09-.07-.032-.149-.06-.233-.087-.086-.026-.176-.048-.273-.065-.095-.018-.192-.027-.29-.027-.189 0-.335.035-.44.104-.104.068-.156.16-.156.27 0 .055.014.101.041.138.027.038.065.069.11.093.046.024.101.043.165.057l.099.02.105.018.326.05c.344.05.612.15.806.3.193.149.29.36.29.628 0 .152-.033.29-.098.415-.065.127-.158.235-.28.325-.121.091-.271.162-.45.212-.18.05-.381.076-.607.076-.082 0-.176-.006-.283-.015-.107-.01-.222-.03-.342-.059-.12-.03-.244-.07-.368-.124-.084-.034-.165-.076-.244-.126l-.115-.08.319-.516c.057.044.118.085.186.124.067.038.142.072.226.101.085.03.178.054.28.071.102.017.218.026.348.026.236 0 .415-.035.535-.103.12-.07.181-.163.181-.281 0-.09-.044-.163-.131-.221-.066-.044-.16-.079-.282-.104l-.133-.023-.329-.043c-.35-.047-.616-.15-.797-.307-.181-.156-.271-.361-.271-.615 0-.156.029-.296.09-.42.06-.125.147-.231.26-.317.112-.086.25-.154.41-.2.159-.047.34-.071.542-.071zm10.219-.003c.105 0 .2.007.284.021l.085.018.084.024-.204.656c-.042-.014-.088-.027-.138-.036-.096-.02-.186-.03-.27-.03-.11 0-.21.019-.302.056-.092.037-.171.092-.237.164-.066.072-.117.161-.154.266-.025.07-.042.147-.05.23l-.007.128v1.73h-.63V27.42h.624v.412c.105-.151.236-.319.391-.39.156-.069.33-.104.524-.104zm9.558 0c.105 0 .2.007.284.021l.086.018.083.024-.204.656c-.042-.014-.088-.027-.137-.036-.097-.02-.187-.03-.27-.03-.11 0-.21.019-.302.056-.093.037-.172.092-.238.164-.066.072-.117.161-.154.266-.025.07-.042.147-.05.23l-.006.128v1.73h-.631V27.42h.625v.412c.104-.151.235-.319.39-.39.156-.069.33-.104.524-.104zm-26.98 0c.18 0 .346.03.498.092.152.061.283.147.393.257.11.111.196.243.257.396.045.115.073.238.084.37l.006.136v1.976h-.668v-1.75c0-.265-.063-.469-.187-.61-.123-.143-.299-.214-.523-.214-.108 0-.21.018-.306.054-.095.037-.178.09-.25.16-.07.07-.128.156-.17.26-.029.07-.047.146-.057.228l-.007.13v1.742h-.669v-1.75c0-.265-.062-.469-.186-.61-.124-.143-.299-.214-.523-.214-.109 0-.211.018-.306.054-.096.037-.179.09-.25.16-.071.07-.128.156-.17.26-.029.07-.048.146-.057.228l-.007.13v1.742h-.669V27.42h.662v.384c.062-.092.13-.168.206-.228.075-.06.154-.108.237-.143.083-.035.166-.06.25-.074.084-.014.165-.021.243-.021.234 0 .441.05.623.149.181.1.325.237.431.412.066-.111.144-.204.233-.277.09-.074.183-.131.282-.172.099-.042.2-.071.302-.088.103-.016.202-.024.298-.024zm29.284.647c-.15 0-.283.027-.4.08-.118.054-.217.126-.298.217-.082.09-.144.197-.187.32-.044.122-.066.252-.066.39s.022.269.066.391c.043.122.105.23.187.32.08.091.18.163.297.217.118.053.252.08.4.08.143 0 .272-.025.389-.077.116-.051.216-.122.299-.212.083-.09.148-.195.194-.318.046-.123.07-.256.07-.4 0-.145-.024-.278-.07-.401-.046-.123-.11-.23-.194-.318-.083-.09-.183-.161-.3-.212-.116-.052-.245-.077-.387-.077zm-25.774 0c-.15 0-.283.027-.4.08-.118.054-.217.126-.298.217-.081.09-.144.197-.187.32-.044.122-.066.252-.066.39s.022.269.066.391c.043.122.106.23.187.32.08.091.18.163.297.217.118.053.252.08.4.08.143 0 .272-.025.389-.077.116-.051.216-.122.299-.212.083-.09.148-.195.194-.318.046-.123.07-.256.07-.4 0-.145-.024-.278-.07-.401-.046-.123-.11-.23-.194-.318-.083-.09-.183-.161-.299-.212-.117-.052-.246-.077-.388-.077zm19.42 0c-.148 0-.282.027-.4.08-.117.054-.216.126-.297.217-.081.09-.144.197-.187.32-.044.122-.066.252-.066.39s.022.269.066.391c.043.122.106.23.187.32.08.091.18.163.297.217.118.053.252.08.4.08.143 0 .272-.025.39-.077.115-.051.215-.122.298-.212.083-.09.148-.195.194-.318.046-.123.07-.256.07-.4 0-.145-.024-.278-.07-.401-.046-.123-.11-.23-.194-.318-.083-.09-.183-.161-.299-.212-.117-.052-.246-.077-.388-.077zm-9.314-.037c-.123 0-.231.02-.328.056-.095.038-.176.09-.246.16-.07.069-.125.15-.17.245-.028.064-.052.132-.07.203l-.021.111h1.635c-.037-.245-.126-.436-.264-.57-.138-.136-.317-.205-.536-.205z"/>
        <path fill="#FFF" d="M14.735 12.718c0-3.768 1.764-7.123 4.51-9.294-2.024-1.6-4.583-2.559-7.367-2.559C5.318.865 0 6.172 0 12.718c0 6.546 5.318 11.853 11.878 11.853 2.784 0 5.343-.958 7.367-2.56-2.746-2.17-4.51-5.525-4.51-9.293" opacity=".5"/>
        <path fill="#FFF" d="M14.735 12.718c0 3.768 1.764 7.123 4.51 9.294 2.747-2.171 4.51-5.526 4.51-9.294 0-3.768-1.763-7.123-4.51-9.294-2.746 2.171-4.51 5.526-4.51 9.294" opacity=".8"/>
        <g transform="translate(37.267 18.638)">
            <mask id="42r1r1urfb" fill="#fff">
                <use xlink:href="#wd9bfuqh4a"/>
            </mask>
            <path fill="#727171" d="M1.173.56V.205l-.1.306H.96l-.1-.305V.56H.755V.05h.151l.111.326.11-.327h.152V.56h-.106zm-.752 0v-.4H.279V.05h.389v.11H.526v.4H.42z" mask="url(#42r1r1urfb)"/>
        </g>
        <g transform="translate(19.067 .476)">
            <mask id="d4co6gqg0d" fill="#fff">
                <use xlink:href="#w65vxzgric"/>
            </mask>
            <path fill="#FFF" d="M7.546.389c-2.784 0-5.342.958-7.367 2.56 2.746 2.17 4.51 5.526 4.51 9.293 0 3.768-1.764 7.123-4.51 9.294 2.025 1.6 4.583 2.56 7.367 2.56 6.56 0 11.878-5.308 11.878-11.854C19.424 5.696 14.106.389 7.547.389" mask="url(#d4co6gqg0d)" opacity=".2"/>
        </g>
    </g>
</svg>
