<svg xmlns="http://www.w3.org/2000/svg" width="82" height="22" viewBox="0 0 82 22">
    <g fill="#FFF" fill-rule="evenodd" opacity=".5">
        <path d="M63.48 9.625c-.242 1.591-1.458 1.591-2.635 1.591h-.67l.47-2.97c.029-.18.184-.312.365-.312h.308c.8 0 1.556 0 1.946.456.234.273.304.677.216 1.235m-.512-4.15h-4.435c-.304 0-.562.22-.61.52L56.13 17.358c-.035.224.139.427.365.427h2.276c.212 0 .393-.154.426-.364l.509-3.222c.047-.3.306-.52.609-.52h1.403c2.922 0 4.609-1.412 5.049-4.213.198-1.224.007-2.187-.566-2.86-.63-.74-1.75-1.133-3.233-1.133" opacity=".5" transform="translate(0 .759)"/>
        <path d="M31.842 9.625c-.242 1.591-1.458 1.591-2.634 1.591h-.669l.47-2.97c.027-.18.182-.312.364-.312h.307c.801 0 1.557 0 1.947.456.233.273.304.677.215 1.235m-.511-4.15h-4.436c-.304 0-.562.22-.609.52l-1.794 11.364c-.035.224.138.427.365.427h2.119c.303 0 .56-.221.608-.52l.484-3.066c.047-.3.306-.52.61-.52h1.402c2.923 0 4.609-1.412 5.05-4.213.197-1.224.007-2.187-.566-2.86-.631-.74-1.75-1.133-3.233-1.133M41.629 13.705c-.205 1.212-1.169 2.027-2.398 2.027-.616 0-1.11-.199-1.426-.573-.314-.371-.433-.902-.333-1.49.19-1.203 1.17-2.043 2.38-2.043.603 0 1.093.2 1.416.579.326.38.454.913.36 1.5m2.96-4.13h-2.124c-.181 0-.336.131-.365.311l-.093.593-.148-.214c-.46-.667-1.486-.89-2.51-.89-2.346 0-4.35 1.777-4.741 4.269-.203 1.243.086 2.431.791 3.26.648.762 1.573 1.079 2.675 1.079 1.892 0 2.94-1.214 2.94-1.214l-.094.59c-.036.223.138.427.366.427h1.911c.304 0 .562-.22.61-.52l1.148-7.265c.036-.224-.138-.427-.365-.427" opacity=".8" transform="translate(0 .759)"/>
        <path d="M73.266 13.705c-.205 1.212-1.168 2.027-2.398 2.027-.615 0-1.109-.199-1.425-.573-.315-.371-.433-.902-.334-1.49.192-1.203 1.171-2.043 2.38-2.043.604 0 1.094.2 1.417.579.325.38.454.913.36 1.5m2.96-4.13h-2.124c-.181 0-.336.131-.365.311l-.093.593-.15-.214c-.459-.667-1.484-.89-2.508-.89-2.347 0-4.351 1.777-4.741 4.269-.203 1.243.085 2.431.79 3.26.65.762 1.574 1.079 2.676 1.079 1.892 0 2.94-1.214 2.94-1.214l-.095.59c-.035.223.138.427.366.427h1.912c.304 0 .562-.22.61-.52l1.148-7.265c.035-.224-.138-.427-.365-.427" opacity=".5" transform="translate(0 .759)"/>
        <path d="M55.901 9.574h-2.135c-.204 0-.394.101-.51.27l-2.944 4.334-1.249-4.164c-.078-.26-.318-.44-.59-.44h-2.098c-.254 0-.432.25-.35.489l2.35 6.895-2.211 3.117c-.173.244.002.583.302.583H48.6c.202 0 .39-.099.506-.265l7.1-10.238c.17-.246-.005-.58-.304-.58" opacity=".8" transform="translate(0 .759)"/>
        <path d="M78.73 5.787l-1.82 11.572c-.036.224.137.427.364.427h1.832c.303 0 .561-.22.608-.52l1.795-11.365c.035-.224-.138-.426-.366-.426h-2.048c-.182 0-.337.132-.365.312M15.79 5.249c-.02.122-.041.247-.066.376-.847 4.347-3.746 5.85-7.45 5.85H6.39c-.453 0-.835.329-.904.775l-.966 6.116-.274 1.734c-.047.293.18.558.476.558h3.344c.396 0 .733-.288.794-.678l.033-.17.63-3.992.041-.22c.062-.39.399-.678.794-.678h.5c3.24 0 5.776-1.315 6.518-5.117.31-1.59.15-2.917-.67-3.849-.248-.282-.556-.515-.915-.705" opacity=".5" transform="translate(0 .759)"/>
        <path d="M14.903 4.895c-.129-.038-.263-.072-.4-.102s-.279-.057-.424-.08c-.51-.083-1.065-.122-1.662-.122H7.38c-.124 0-.242.028-.347.079-.233.112-.405.33-.447.6l-1.07 6.782-.031.198c.07-.446.452-.775.904-.775h1.886c3.703 0 6.602-1.503 7.45-5.85.025-.129.046-.254.065-.376-.214-.114-.447-.211-.696-.295l-.19-.059" transform="translate(0 .759)"/>
        <path d="M6.586 5.27c.042-.269.215-.489.447-.6.105-.05.224-.078.347-.078h5.038c.596 0 1.152.038 1.66.12.147.024.288.05.425.081.138.03.27.065.4.103.064.018.128.038.19.058.25.084.483.18.697.295.252-1.608-.002-2.701-.871-3.691C13.96.468 12.23 0 10.017 0H3.59c-.452 0-.837.33-.908.776L.007 17.729c-.053.334.206.637.545.637h3.967l.996-6.314 1.07-6.782z" opacity=".8" transform="translate(0 .759)"/>
    </g>
</svg>
