<svg xmlns="http://www.w3.org/2000/svg" width="46" height="14" viewBox="0 0 46 14">
    <g fill="#FFF" fill-rule="evenodd" opacity=".5">
        <path d="M33.27.51c-.127 1.024-.296 2.008-.504 2.951-.876-.285-1.886-.743-3.313-.648-.852.058-1.86.385-1.872 1.152-.016.851 1.382 1.357 2.16 1.73 1.402.67 2.908 1.564 3.025 3.384.09 1.4-.56 2.616-1.296 3.313-1.963 1.855-6.32 2.051-9.291.864.185-.99.354-1.999.504-3.025 1.15.49 2.732 1.151 4.465.937.79-.098 1.757-.559 1.729-1.369-.035-.988-1.88-1.576-2.81-2.088-1.08-.596-2.308-1.586-2.375-3.097-.045-1.007.347-1.95.864-2.593C26.09.114 30.035-.564 33.27.51zM42.776.22l2.953 13.611h-3.385c-.22-.645-.28-1.448-.504-2.088h-4.61l-.863 2.088h-3.89L37.52 2.237c.223-.508.623-1.203.792-1.512.236-.433 1.099-.496 1.561-.503h2.904zM22.06.25L19.802 13.79h-3.696L18.366.25h3.695zM16.906.221c-1.885 4.55-3.897 8.97-5.761 13.54H7.184L3.899 2.05c1.145.67 2.229 1.513 3.124 2.492.074.082.146.164.216.246.117.135.232.27.34.41l.05.062c.619.808 1.104 1.69 1.389 2.625l-.065-.316c0 .006.005.014.006.021l.385 1.776c1.312-2.96 2.399-6.147 3.673-9.146zM40.12 3.972l-1.882 5.035h3.043L40.12 3.972z" opacity=".4"/>
        <path d="M6.042.223H0v.295c3.478.678 7.869 3.595 9.018 7.368L7.72 1.58C7.545.606 6.867.223 6.042.223" opacity=".8"/>
    </g>
</svg>
