<svg xmlns="http://www.w3.org/2000/svg" xmlns:xlink="http://www.w3.org/1999/xlink" width="45" height="45" viewBox="0 0 45 45">
    <defs>
        <path id="prefix__a" d="M0 0.372L44.113 0.372 44.113 45 0 45z"/>
        <path id="prefix__c" d="M0 0.87L38.477 0.87 38.477 44 0 44z"/>
        <path id="prefix__e" d="M0.094 0.508L3.295 0.508 3.295 3.429 0.094 3.429z"/>
    </defs>
    <g fill="none" fill-rule="evenodd">
        <g transform="translate(0 -1) translate(0 .628)">
            <mask id="prefix__b" fill="#fff">
                <use xlink:href="#prefix__a"/>
            </mask>
            <path fill="#FFE6A1" d="M41.555 25.834l-2.163.002c-.72 0-1.344-.498-1.503-1.2l-1.23-5.459c-.105-.462-.417-.85-.845-1.052l-1.103-.52c-.638-.303-.99-1-.852-1.693l1.601-8.046c.074-.375.006-.766-.192-1.095l-2.19-3.633C30.708 1.835 28.054.936 25.185.558 14.158-.89 3.578 6.213.747 16.97c-3.302 12.552 4.676 25.103 17.215 27.599 11.96 2.379 23.582-5.286 26.151-17.16L42.5 26.157c-.27-.21-.603-.322-.945-.322" mask="url(#prefix__b)"/>
        </g>
        <g transform="translate(0 -1) translate(0 1.628)">
            <mask id="prefix__d" fill="#fff">
                <use xlink:href="#prefix__c"/>
            </mask>
            <path fill="#FFD796" d="M26.104 38.127c-.133-.026-.262-.06-.394-.09-1.014.766-2.335 1.116-3.679.849-1.98-.394-3.405-2.001-3.668-3.893-2.495-1.61-4.62-3.69-6.275-6.094-.33.03-.665.033-1.006-.035-1.875-.373-3.093-2.196-2.72-4.071.13-.655.445-1.223.869-1.677l-.046-.137c-2.323-.628-3.797-2.954-3.32-5.35.281-1.412 1.178-2.544 2.356-3.173.07-.851.183-1.706.354-2.563.856-4.304 2.901-8.066 5.72-11.023C7.404 3.532 1.981 9.55.433 17.333c-2.404 12.085 5.444 23.83 17.529 26.234 7.782 1.548 15.418-1.16 20.515-6.506-3.811 1.472-8.069 1.922-12.373 1.066" mask="url(#prefix__d)"/>
        </g>
        <path fill="#FFD796" d="M18.911 14.792c1.042.207 1.718 1.22 1.511 2.262-.207 1.041-1.22 1.718-2.26 1.511-1.043-.207-1.72-1.22-1.513-2.262.208-1.042 1.22-1.718 2.262-1.51M36.43 31.22c1.042.207 1.718 1.22 1.511 2.262-.207 1.04-1.22 1.718-2.26 1.51-1.043-.206-1.72-1.22-1.513-2.261.208-1.042 1.22-1.718 2.262-1.511M19.04 28.937c.728.145 1.202.854 1.057 1.583-.145.729-.854 1.203-1.583 1.058-.73-.145-1.203-.854-1.058-1.583.145-.73.854-1.203 1.583-1.058M31.627 18.89c.73.145 1.203.854 1.058 1.583-.145.73-.854 1.203-1.583 1.058-.73-.145-1.203-.854-1.058-1.583.145-.729.854-1.203 1.583-1.058M28.672 6.144c.729.145 1.203.854 1.058 1.583-.145.73-.854 1.203-1.583 1.058-.73-.145-1.203-.854-1.058-1.583.145-.729.854-1.203 1.583-1.058" transform="translate(0 -1)"/>
        <path fill="#B97850" d="M21.703 20.649l-1.16 1.28c-.696.766-.453 1.984.481 2.425l2.467 1.166c.77.363 1.686.034 2.05-.734l.532-1.129c.108-.229.158-.48.146-.732l-.065-1.319c-.039-.82-.717-1.465-1.538-1.464l-1.775.002c-.434.001-.847.184-1.138.505M24.2 30.857l-1.21 1.335c-.603.664-.512 1.7.196 2.25l2.608 2.024c.777.603 1.913.33 2.334-.56l.535-1.132.627-1.326c.39-.825-.02-1.806-.88-2.11l-2.56-.9c-.584-.204-1.234-.04-1.65.419M10.114 18.697l-1.478 1.63c-.475.523-.532 1.3-.14 1.888l1.4 2.095c.509.763 1.568.913 2.27.323l1.87-1.575c.368-.31.57-.772.546-1.252l-.07-1.434c-.028-.594-.397-1.118-.946-1.347l-1.722-.715c-.601-.25-1.293-.095-1.73.387M18.695 7.667l-1.14 1.257c-.661.729-.478 1.883.378 2.37l1.734.989c.507.289 1.132.266 1.617-.057l1.199-.801c.449-.301.708-.815.682-1.355l-.053-1.098c-.035-.705-.545-1.296-1.237-1.434l-1.74-.346c-.53-.106-1.077.075-1.44.475M34.6 22.955l-1.046.7c-.707.472-.897 1.427-.425 2.134l.343.512c.368.551 1.047.805 1.685.63l2.718-.745c.696-.19 1.166-.838 1.13-1.558l-.022-.47c-.04-.82-.717-1.465-1.54-1.464l-1.99.002c-.303 0-.6.09-.852.26M31.132 11.068l-1.268 1.137c-.466.418-.632 1.076-.421 1.665l.62 1.73c.296.827 1.223 1.238 2.035.903l2.133-.881c.817-.337 1.182-1.291.8-2.088l-.752-1.568c-.135-.282-.353-.516-.625-.671l-.733-.418c-.575-.328-1.296-.251-1.79.191M13.476 32.341l-1.23 1.036c-.79.665-.714 1.903.15 2.467l1.22.792c.33.216.732.296 1.12.223l1.604-.299c.96-.178 1.514-1.196 1.14-2.099l-.178-.434c-.103-.247-.268-.464-.48-.628l-1.412-1.096c-.573-.445-1.38-.429-1.934.038" transform="translate(0 -1)"/>
        <path fill="#A5694B" d="M11.804 24.503l-1.4-2.095c-.392-.587-.334-1.366.14-1.888l1.478-1.63c.126-.139.277-.242.437-.325l-.615-.255c-.6-.25-1.293-.095-1.73.387l-1.478 1.63c-.475.522-.532 1.301-.14 1.888l1.4 2.095c.472.707 1.413.88 2.107.431-.072-.07-.14-.15-.2-.238M21.285 12.046l-1.735-.989c-.855-.487-1.039-1.64-.377-2.37l1.14-1.257c.058-.064.127-.112.194-.165l-.373-.074c-.53-.105-1.077.075-1.44.476l-1.14 1.256c-.66.73-.477 1.883.378 2.371l1.735.99c.506.287 1.132.265 1.616-.059l.17-.112c-.056-.024-.115-.037-.168-.067M25.01 25.37l-2.467-1.165c-.935-.441-1.177-1.66-.483-2.425l1.162-1.28c.138-.152.305-.271.487-.357h-.867c-.434.002-.847.185-1.138.506l-1.162 1.28c-.694.766-.452 1.984.483 2.426l2.467 1.165c.52.246 1.104.169 1.542-.14-.008-.004-.016-.005-.024-.01M31.498 15.75l-.62-1.73c-.211-.59-.044-1.248.421-1.666l1.268-1.136c.139-.125.298-.213.465-.278l-.111-.064c-.575-.328-1.296-.25-1.789.191l-1.268 1.137c-.466.418-.633 1.076-.422 1.665l.62 1.73c.296.824 1.218 1.235 2.028.906-.263-.177-.476-.433-.592-.756M34.702 26.442c-.472-.707-.282-1.662.425-2.134l1.047-.7c.252-.169.55-.259.853-.259l1.675-.002c-.28-.396-.74-.654-1.259-.653l-1.99.002c-.303 0-.6.09-.853.26l-1.047.7c-.707.471-.897 1.426-.425 2.133l.343.513c.345.516.964.757 1.566.642l-.335-.502zM25.08 34.687c-.708-.55-.798-1.586-.196-2.25l1.211-1.335c.159-.174.358-.292.568-.377l-.812-.285c-.584-.206-1.235-.041-1.65.417l-1.212 1.335c-.602.664-.512 1.7.196 2.25l2.609 2.024c.519.403 1.196.408 1.715.106l-2.429-1.885zM15.175 36.684l-1.218-.793c-.866-.563-.942-1.802-.152-2.467l1.23-1.035c.078-.066.162-.12.249-.168-.561-.354-1.292-.315-1.808.12l-1.23 1.035c-.79.665-.714 1.904.15 2.467l1.22.793c.33.216.732.295 1.12.223l.57-.106c-.043-.023-.09-.042-.131-.069" transform="translate(0 -1)"/>
        <path fill="#C98850" d="M4.668 29.215c-.113-.023-.223-.071-.321-.147-.336-.26-.397-.743-.136-1.079l1.055-1.359c.26-.336.742-.395 1.079-.136.336.261.397.744.136 1.079l-1.054 1.359c-.185.239-.482.338-.76.283" transform="translate(0 -1)"/>
        <path fill="#925F4A" d="M16.299 41.727l-.755-.15c-.416-.083-.687-.488-.604-.905.083-.417.488-.687.905-.604l.754.15c.417.083.688.487.605.905-.083.417-.488.687-.905.604" transform="translate(0 -1)"/>
        <path fill="#C98850" d="M16.132 26.79c-.113-.022-.223-.071-.321-.147-.336-.26-.397-.743-.136-1.08l1.055-1.358c.26-.335.742-.396 1.079-.136.336.26.397.744.136 1.079l-1.054 1.359c-.185.239-.482.338-.76.283" transform="translate(0 -1)"/>
        <path fill="#925F4A" d="M14.006 13.816c-.113-.022-.223-.07-.321-.147l-1.36-1.054c-.335-.26-.396-.744-.135-1.08.26-.335.743-.396 1.08-.136l1.359 1.055c.335.26.396.744.136 1.08-.185.238-.482.337-.76.282M25.163 5.054l-1.51-.3c-.416-.083-.687-.488-.604-.905.083-.417.488-.687.905-.604l1.509.3c.417.083.688.487.605.905-.083.417-.488.687-.905.604" transform="translate(0 -1)"/>
        <path fill="#C98850" d="M25.93 16.973c-.277-.055-.513-.261-.593-.551l-.454-1.66c-.112-.41.13-.833.54-.945.41-.111.832.13.944.539l.454 1.659c.113.41-.129.833-.538.945-.12.033-.24.035-.353.013" transform="translate(0 -1)"/>
        <path fill="#925F4A" d="M4.488 16.549c-.092-.07-.17-.163-.223-.273-.186-.383-.027-.844.355-1.03l1.547-.753c.382-.186.842-.027 1.028.355.186.382.027.843-.355 1.03l-1.546.753c-.272.131-.582.09-.806-.082M31.073 30.546c-.193-.038-.372-.15-.49-.327l-1.208-1.809c-.236-.354-.142-.83.212-1.067.353-.237.831-.142 1.067.212l1.21 1.81c.235.352.14.83-.214 1.066-.176.118-.384.153-.577.115" transform="translate(0 -1)"/>
        <path fill="#C98850" d="M31.082 38.392c-.193-.038-.372-.15-.49-.327-.236-.353-.141-.831.213-1.067l.904-.605c.354-.236.83-.141 1.067.213.237.353.142.83-.212 1.067l-.905.604c-.176.118-.384.153-.577.115" transform="translate(0 -1)"/>
        <path fill="#FFE6A1" d="M38.895 7.001l-.38 1.904c-.105.534.361 1.006.896.906l2.444-.455c.31-.058.553-.298.614-.606l.198-.999c.084-.416-.188-.821-.605-.904L39.8 6.396c-.417-.082-.822.188-.905.605M39.324 13.27l-1.152 3.276c-.27.77.107 1.617.861 1.93l1.327.553c.576.238 1.24.107 1.68-.334l.674-.678c.35-.35.51-.846.43-1.334l-.74-4.511c-.092-.562-.732-.84-1.205-.524l-1.278.854c-.277.184-.486.454-.597.768" transform="translate(0 -1)"/>
        <path fill="#FFD796" d="M42.312 18.023l-1.327-.551c-.754-.314-1.132-1.161-.861-1.932l1.152-3.275c.103-.292.297-.538.546-.721-.203-.051-.426-.027-.622.104l-1.278.854c-.277.185-.487.455-.597.769l-1.152 3.274c-.271.77.107 1.619.86 1.932l1.328.55c.576.24 1.239.108 1.68-.333l.59-.592c-.108-.02-.216-.036-.32-.08M41.22 8.602c-.535.1-1.002-.373-.895-.906l.228-1.15-.753-.15c-.417-.083-.822.188-.905.605l-.38 1.904c-.105.533.361 1.006.896.906l2.444-.455c.31-.058.553-.298.614-.606l.078-.395-1.326.247z" transform="translate(0 -1)"/>
        <g transform="translate(0 -1) translate(41 20.628)">
            <mask id="prefix__f" fill="#fff">
                <use xlink:href="#prefix__e"/>
            </mask>
            <path fill="#FFD796" d="M.88.936l-.624.803c-.149.192-.199.442-.135.675l.123.448c.122.446.609.684 1.036.508l1.378-.569c.238-.098.41-.309.46-.56l.163-.814c.101-.515-.33-.979-.852-.913l-1.038.13C1.188.67 1.004.775.879.936" mask="url(#prefix__f)"/>
        </g>
    </g>
</svg>
