<svg xmlns="http://www.w3.org/2000/svg" xmlns:xlink="http://www.w3.org/1999/xlink" width="83" height="60" viewBox="0 0 83 60">
    <defs>
        <linearGradient id="prefix__b" x1="50%" x2="50%" y1="0%" y2="100%">
            <stop offset="0%" stop-color="#D2BD7C"/>
            <stop offset="100%" stop-color="#534B32"/>
        </linearGradient>
        <linearGradient id="prefix__g" x1="95.199%" x2="0%" y1="41.902%" y2="41.902%">
            <stop offset="0%" stop-color="#FCF7E9"/>
            <stop offset="100%" stop-color="#B8A978"/>
        </linearGradient>
        <linearGradient id="prefix__i" x1="50%" x2="50%" y1="0%" y2="100%">
            <stop offset="0%" stop-color="#FFF"/>
            <stop offset="100%" stop-color="#FFF" stop-opacity=".2"/>
        </linearGradient>
        <linearGradient id="prefix__l" x1="50%" x2="50%" y1="0%" y2="100%">
            <stop offset="0%" stop-color="#BFAD78"/>
            <stop offset="100%" stop-color="#534B32"/>
        </linearGradient>
        <linearGradient id="prefix__n" x1="50%" x2="50%" y1="0%" y2="100%">
            <stop offset="0%" stop-color="#FFF"/>
            <stop offset="100%" stop-color="#FFF9E8" stop-opacity=".1"/>
        </linearGradient>
        <path id="prefix__a" d="M6.16 0.287L0.83 6.213 1.127 13.691 6.565 8.076z"/>
        <path id="prefix__d" d="M6.34 15.149L0.918 19.527 32.416 5.139 39 0.42z"/>
        <path id="prefix__f" d="M58.16.287l.405 7.789c-4.164-.083-8.039.055-11.646.383-3.672.334-7.061.867-10.188 1.567-3.182.712-6.089 1.598-8.746 2.624-2.699 1.041-5.136 2.228-7.337 3.524-5.106 3.008-8.92 6.53-11.761 10.175-2.915 3.741-4.781 7.581-5.968 11.094-1.208 3.577-1.701 6.785-1.883 9.18-.185 2.419-.052 3.989-.028 4.275.484-1.836 1.121-3.529 1.89-5.089.762-1.546 1.655-2.963 2.657-4.258.992-1.285 2.093-2.45 3.28-3.508 1.178-1.048 2.442-1.991 3.773-2.836 3.35-2.126 7.126-3.643 11.03-4.704 3.828-1.041 7.786-1.647 11.6-1.966 3.748-.314 7.369-.35 10.605-.246 3.193.101 6.024.339 8.247.584l-3.75 9.274L83 23.42 58.16.287z"/>
        <path id="prefix__j" d="M4.601 5.65L0.918 14.527 6.34 10.149 10.09 0.875z"/>
        <path id="prefix__m" d="M57.16.287l8.599 8.008c-3.354 6.68-10.681 13.926-20.541 20.01-.126-.005-.248-.011-.375-.015-3.236-.103-6.857-.066-10.606.247-3.813.319-7.771.925-11.599 1.966-3.904 1.061-7.681 2.577-11.03 4.704-1.331.845-2.595 1.787-3.773 2.836-.997.888-1.928 1.858-2.791 2.905-1.416-.019-2.77-.11-4.056-.268.25-1.036.552-2.115.931-3.237 1.186-3.513 3.053-7.353 5.968-11.094 2.841-3.645 6.655-7.167 11.762-10.175 2.2-1.296 4.637-2.483 7.336-3.525 2.657-1.026 5.564-1.911 8.745-2.623 3.128-.7 6.517-1.233 10.189-1.567 3.607-.329 7.482-.466 11.646-.384L57.16.287z"/>
    </defs>
    <g fill="none" fill-rule="evenodd">
        <g transform="rotate(-5 50.186 45.75) translate(54 .713)">
            <mask id="prefix__c" fill="#fff">
                <use xlink:href="#prefix__a"/>
            </mask>
            <path fill="url(#prefix__b)" d="M6.16 0.287L0.83 6.213 1.127 13.691 6.565 8.076z" mask="url(#prefix__c)"/>
        </g>
        <g transform="rotate(-5 50.186 45.75) translate(46 23.713)">
            <mask id="prefix__e" fill="#fff">
                <use xlink:href="#prefix__d"/>
            </mask>
            <path fill="url(#prefix__b)" d="M6.34 15.149L0.918 19.527 32.416 5.139 39 0.42z" mask="url(#prefix__e)"/>
        </g>
        <g transform="rotate(-5 50.186 45.75) translate(2 .713)">
            <mask id="prefix__h" fill="#fff">
                <use xlink:href="#prefix__f"/>
            </mask>
            <path fill="url(#prefix__g)" d="M58.16.287l.405 7.789c-4.164-.083-8.039.055-11.646.383-3.672.334-7.061.867-10.188 1.567-3.182.712-6.089 1.598-8.746 2.624-2.699 1.041-5.136 2.228-7.337 3.524-5.106 3.008-8.92 6.53-11.761 10.175-2.915 3.741-4.781 7.581-5.968 11.094-1.208 3.577-1.701 6.785-1.883 9.18-.185 2.419-.052 3.989-.028 4.275.484-1.836 1.121-3.529 1.89-5.089.762-1.546 1.655-2.963 2.657-4.258.992-1.285 2.093-2.45 3.28-3.508 1.178-1.048 2.442-1.991 3.773-2.836 3.35-2.126 7.126-3.643 11.03-4.704 3.828-1.041 7.786-1.647 11.6-1.966 3.748-.314 7.369-.35 10.605-.246 3.193.101 6.024.339 8.247.584l-3.75 9.274L83 23.42 58.16.287z" mask="url(#prefix__h)"/>
        </g>
        <g>
            <path fill="url(#prefix__i)" d="M23.634 24.036L25 23.42 0.16 0.287 0.263 2.271z" opacity=".5" transform="rotate(-5 50.186 45.75) translate(2 .713) translate(58)"/>
            <path fill="url(#prefix__b)" d="M6.379 19.764c2.841-3.645 6.655-7.167 11.761-10.175 2.2-1.296 4.638-2.483 7.337-3.525 2.657-1.026 5.564-1.911 8.745-2.623 3.128-.7 6.517-1.233 10.188-1.567 3.607-.329 7.483-.466 11.647-.384L55.983.068C52.04.009 48.356.146 44.919.459c-3.672.334-7.061.867-10.189 1.567-3.181.712-6.088 1.597-8.745 2.623-2.699 1.042-5.136 2.229-7.336 3.525-5.107 3.008-8.921 6.53-11.762 10.175C3.972 22.09 2.105 25.93.919 29.443l-.01.03c1.192-3.125 2.933-6.454 5.47-9.709" opacity=".5" transform="rotate(-5 50.186 45.75) translate(2 .713) translate(2 8)"/>
            <path d="M.991 50.673l.017.225c.145-.549.307-1.081.479-1.605-.176.451-.342.91-.496 1.38" transform="rotate(-5 50.186 45.75) translate(2 .713)"/>
        </g>
        <g transform="rotate(-5 50.186 45.75) translate(46 28.713)">
            <mask id="prefix__k" fill="#fff">
                <use xlink:href="#prefix__j"/>
            </mask>
            <path fill="url(#prefix__b)" d="M4.601 5.65L0.918 14.527 6.34 10.149 10.09 0.875z" mask="url(#prefix__k)"/>
        </g>
        <path fill="url(#prefix__b)" d="M37.238 29.25c-3.814.319-7.772.925-11.6 1.966-3.904 1.061-7.68 2.578-11.03 4.704-.756.481-1.49.992-2.2 1.536-.713.547-1.4 1.127-2.058 1.743-.662.619-1.294 1.272-1.894 1.965-.603.694-1.172 1.427-1.704 2.199l-3.124 4.529c.507-.734 1.048-1.433 1.621-2.095.57-.66 1.172-1.285 1.8-1.877.626-.588 1.279-1.144 1.956-1.669.675-.522 1.372-1.014 2.09-1.475 3.184-2.05 6.774-3.524 10.485-4.57 3.643-1.026 7.409-1.641 11.04-1.981 3.573-.336 7.025-.405 10.11-.339 3.048.066 5.749.266 7.871.477l5.489-4.775c-2.223-.245-5.054-.483-8.247-.584-1.036-.033-2.111-.052-3.217-.052-2.35 0-4.84.085-7.388.298" transform="rotate(-5 50.186 45.75)"/>
        <path fill="url(#prefix__l)" d="M5.253 35.855c-1.463 2.413-2.527 4.802-3.298 7.046C1.174 45.17.697 47.283.41 49.116.12 50.964.023 52.52.005 53.662c-.003.148-.005.289-.005.422v.113c0 .21.004.4.008.57.006.204.013.377.02.519.003.072.007.136.011.191.007.112.013.191.017.236l2.952-4.102c-.016-.192-.081-.96-.067-2.174.015-1.208.107-2.855.404-4.808.295-1.936.789-4.166 1.602-6.556.803-2.361 1.916-4.871 3.449-7.399l-3.143 5.181z" transform="rotate(-5 50.186 45.75)"/>
        <g transform="rotate(-5 50.186 45.75) translate(3 .713)">
            <mask id="prefix__o" fill="#fff">
                <use xlink:href="#prefix__m"/>
            </mask>
            <path fill="url(#prefix__n)" d="M57.16.287l.405 7.788c-4.164-.082-8.039.055-11.646.384-3.672.334-7.061.867-10.189 1.567-3.181.712-6.088 1.597-8.745 2.623-2.699 1.042-5.136 2.229-7.336 3.525-5.107 3.008-8.921 6.53-11.762 10.175-2.915 3.741-4.782 7.581-5.968 11.094-.379 1.122-.681 2.201-.931 3.237 1.286.158 2.64.249 4.056.268.863-1.047 1.794-2.017 2.791-2.905 1.178-1.049 2.442-1.991 3.773-2.836 3.349-2.127 7.126-3.643 11.03-4.704 3.828-1.041 7.786-1.647 11.599-1.966 3.749-.313 7.37-.35 10.606-.247.127.004.249.01.375.015 9.86-6.084 17.187-13.33 20.541-20.01L57.16.287z" mask="url(#prefix__o)"/>
        </g>
        <path fill="url(#prefix__b)" d="M55.52 30.996l-3.18 7.866.078-.035 3.163-7.825-.061-.006" transform="rotate(-5 50.186 45.75)"/>
    </g>
</svg>
