<?xml version="1.0" encoding="UTF-8"?>
<svg width="19px" height="17px" viewBox="0 0 19 17" version="1.1" xmlns="http://www.w3.org/2000/svg" xmlns:xlink="http://www.w3.org/1999/xlink">
    <!-- Generator: Sketch 52.6 (67491) - http://www.bohemiancoding.com/sketch -->
    <title>avatar</title>
    <desc>Created with Sketch.</desc>
    <g id="Symbols" stroke="none" stroke-width="1" fill="none" fill-rule="evenodd">
        <g id="icon/avatar" fill="#FFFFFF">
            <path d="M6.9387,6.838 C6.9387,6.838 8.4367,7.847 8.9227,8.188 C8.9227,8.188 8.6207,10.369 7.4287,9.957 C6.2357,9.544 6.3127,7.495 6.9387,6.838 Z M12.5685,7.2546 C12.8945,7.6376 13.0105,8.2756 12.9135,8.7156 C12.7975,9.2426 12.4575,10.0796 11.6625,10.1706 C10.8685,10.2786 10.6695,8.3466 10.6695,8.3466 L12.5685,7.2546 Z M16.631,9.193 C16.909,7.255 15.638,4.592 15.042,3.751 C14.888,3.535 14.598,3.49 14.385,3.658 C13.696,4.193 11.783,5.059 10.148,5.059 C8.328,5.059 6.191,3.98 5.379,3.522 C5.196,3.429 4.998,3.445 4.844,3.583 C2.781,5.446 1.956,7.255 2.499,9.574 C3.01,11.759 5.288,13.917 10.164,13.779 C14.339,13.64 16.27,11.722 16.631,9.193 Z M9.345,1.17239551e-13 C14.76,1.17239551e-13 19.412,3.914 18.479,9.309 C17.525,14.809 13.208,16.197 8.895,16.197 C5.077,16.197 4.51194637e-13,13.777 4.51194637e-13,8.364 C4.51194637e-13,3.976 3.93,1.17239551e-13 9.345,1.17239551e-13 Z" id="avatar"></path>
        </g>
    </g>
</svg>