<svg xmlns="http://www.w3.org/2000/svg" width="29" height="25" viewBox="0 0 29 25">
    <path fill="#FFF" fill-rule="evenodd" d="M23.63 17.834c1.687-2.918 3.06-5.325 3.054-5.351-.006-.027-1.384-2.431-3.063-5.34l-3.053-5.295-6.159-.003H8.252L5.184 7.156c-1.687 2.922-3.065 5.327-3.065 5.345 0 .014 1.381 2.418 3.068 5.342l3.065 5.311 6.157-.006 6.156-.008 3.065-5.306zM7.165 24.98C4.335 20.09.008 12.566 0 12.514c-.006-.054.914-1.67 3.581-6.285L7.168.014l7.235-.009 7.232-.004 3.59 6.216c1.975 3.42 3.59 6.249 3.59 6.28 0 .034-1.615 2.864-3.59 6.284L21.635 25h-7.229c-3.977 0-7.235-.01-7.24-.021zM8.27 12.338c0-5.08.012-8.156.026-8.152.017.006.605.699 1.312 1.537l1.283 1.529v6.627l.003 6.623H8.27v-8.163zm8.823 4.833v-3.33H12.25v-2.365h4.844V7.828c0-2.188.012-3.647.026-3.647.015 0 .883.692 1.927 1.537l1.896 1.534.01 6.626.005 6.623h-3.864v-3.33z"/>
</svg>
