<svg xmlns="http://www.w3.org/2000/svg" width="29" height="25" viewBox="0 0 29 25">
    <path fill="#FFF" fill-rule="evenodd" d="M23.63 17.834c1.687-2.918 3.06-5.325 3.054-5.351-.006-.027-1.384-2.431-3.063-5.34l-3.053-5.295-6.159-.003H8.252L5.184 7.156c-1.687 2.922-3.065 5.327-3.065 5.345 0 .014 1.381 2.418 3.068 5.342l3.065 5.311 6.157-.006 6.156-.008 3.065-5.306zM7.165 24.98C4.335 20.09.008 12.566 0 12.514c-.006-.054.914-1.67 3.581-6.285L7.168.014l7.235-.009 7.232-.004 3.59 6.216c1.975 3.42 3.59 6.249 3.59 6.28 0 .034-1.615 2.864-3.59 6.284L21.635 25h-7.229c-3.977 0-7.235-.01-7.24-.021zm10.65-7.866l-2.149-3.385-1.534-.003h-1.537v-2.249l1.808-.006 1.811-.01.97-1.195c.944-1.162.97-1.197.924-1.255-.029-.034-.412-.52-.853-1.075L16.45 6.92h-4.712l-1.366-1.243c-.753-.683-1.425-1.3-1.497-1.37l-.13-.127H17.895l1.923 2.425c1.058 1.333 1.93 2.446 1.935 2.472.01.03-.603.807-1.719 2.18-.954 1.17-1.727 2.145-1.72 2.162.007.018.832 1.324 1.833 2.898 1.003 1.577 1.816 2.88 1.811 2.898-.012.026-1.909 1.252-1.978 1.277-.009.003-.984-1.516-2.166-3.38zm-10.093-1.52v-3.873l1.491-1.167c.82-.643 1.514-1.185 1.542-1.206.05-.037.052.142.052 5.038v5.078H7.722v-3.87z"/>
</svg>
