<svg xmlns="http://www.w3.org/2000/svg" width="16" height="16" viewBox="0 0 16 16">
    <path fill="#FFF" fill-rule="evenodd" d="M14.967 5.086L11.49 4.65c-.349-.044-.652-.259-.809-.573L8.93.578C8.67.06 8.037-.149 7.52.112c-.22.11-.394.294-.492.52L5.546 4.03c-.148.343-.469.581-.84.625l-3.778.447c-.576.068-.988.59-.92 1.166.031.267.163.511.37.683l2.69 2.27c.295.25.43.641.351 1.02l-.804 3.871c-.124.568.236 1.127.803 1.251.265.057.542.01.773-.13l3.21-1.909c.325-.187.726-.187 1.051 0l3.226 1.902c.495.304 1.142.15 1.445-.346.142-.23.19-.508.131-.773l-.804-3.872c-.079-.379.056-.77.352-1.019l2.706-2.28c.446-.372.506-1.035.134-1.48-.17-.205-.41-.337-.675-.37"/>
</svg>
