<svg xmlns="http://www.w3.org/2000/svg" width="16" height="14" viewBox="0 0 16 14">
    <defs>
        <linearGradient id="prefix__a" x1="50%" x2="50%" y1="0%" y2="100%">
            <stop offset="0%" stop-color="#FCF7E9"/>
            <stop offset="100%" stop-color="#B8A978"/>
        </linearGradient>
    </defs>
    <path fill="url(#prefix__a)" fill-rule="evenodd" d="M14.351 3.48v.445c0 1.214-.206 2.407-.618 3.58-.412 1.174-1 2.246-1.761 3.218-.762.97-1.749 1.76-2.96 2.367-1.212.607-2.542.91-3.99.91-1.825 0-3.498-.526-5.022-1.578.25.027.512.04.787.04 1.524 0 2.885-.499 4.084-1.497-.724-.027-1.367-.27-1.93-.728-.562-.459-.943-1.039-1.142-1.74.2.054.4.081.6.081.299 0 .586-.054.861-.162-.75-.162-1.374-.566-1.874-1.214-.5-.647-.749-1.389-.749-2.225v-.04c.475.27.974.418 1.499.445C1.162 4.653.674 3.669.674 2.428c0-.648.15-1.241.45-1.78.824 1.078 1.817 1.942 2.979 2.589 1.162.647 2.417 1.012 3.766 1.092-.05-.27-.075-.539-.075-.809 0-.97.318-1.8.955-2.488S10.155 0 11.054 0c.95 0 1.748.364 2.398 1.092.75-.161 1.449-.445 2.098-.85-.25.837-.737 1.484-1.461 1.943.674-.081 1.311-.256 1.911-.526-.45.701-1 1.308-1.649 1.82z"/>
</svg>
