<?xml version="1.0" encoding="UTF-8"?>
<svg width="17px" height="12px" viewBox="0 0 17 12" version="1.1" xmlns="http://www.w3.org/2000/svg" xmlns:xlink="http://www.w3.org/1999/xlink">
    <!-- Generator: Sketch 52.6 (67491) - http://www.bohemiancoding.com/sketch -->
    <title>Fill 1</title>
    <desc>Created with Sketch.</desc>
    <g id="Desktop" stroke="none" stroke-width="1" fill="none" fill-rule="evenodd">
        <g id="HashRush-Main" transform="translate(-675.000000, -3973.000000)" fill="#FFFFFF">
            <g id="Group-5" transform="translate(599.000000, 3840.000000)">
                <g id="Group-10">
                    <g id="Group-4" transform="translate(53.000000, 126.000000)">
                        <g id="Group-3" transform="translate(23.000000, 7.000000)">
                            <path d="M9.61408394,6.90047792 C9.61408394,6.02218907 10.2698831,5.31581334 11.1003898,5.31581334 C11.9162659,5.31581334 12.5866957,6.02218907 12.5866957,6.90047792 C12.5866957,7.77961782 11.9308966,8.48514249 11.1003898,8.48514249 C10.2845137,8.48514249 9.61408394,7.77961782 9.61408394,6.90047792 Z M4.29711942,6.90047792 C4.29711942,6.02218907 4.95291854,5.31581334 5.7834253,5.31581334 C6.61393206,5.31581334 7.28350124,6.02218907 7.26887055,6.90047792 C7.26887055,7.77961782 6.61393206,8.48514249 5.7834253,8.48514249 C4.96754923,8.48514249 4.29711942,7.77961782 4.29711942,6.90047792 Z M10.8232674,0.00012326629 L10.6192983,0.230759195 C13.0961879,0.965219736 14.2468486,2.0460597 14.2468486,2.0460597 C12.732142,1.23925947 11.2458361,0.835859362 9.86194502,0.677563116 C8.81369918,0.561819624 7.80848479,0.590755497 6.91945527,0.706498989 C6.83253177,0.706498989 6.75937832,0.720966925 6.67159419,0.735434862 C6.16210196,0.792455553 4.92365717,0.965219736 3.36505847,1.64265959 C2.82630487,1.87329551 2.50529034,2.0460597 2.50529034,2.0460597 C2.50529034,2.0460597 3.69984306,0.908199045 6.32217891,0.172887449 L6.17673265,0.00012326629 C6.17673265,0.00012326629 4.19556523,-0.0432805432 2.0973523,1.49883128 C2.0973523,1.49883128 0,5.22985678 0,9.8247032 C0,9.8247032 1.2238141,11.8995755 4.44342631,12 C4.44342631,12 4.98217992,11.365964 5.41937933,10.8187355 C3.59828887,10.2800177 2.89171265,9.16939078 2.87105756,9.13449752 C2.88827014,9.14641229 3.03113451,9.24258152 3.27727434,9.37789928 C3.29190503,9.37789928 3.30653572,9.39236721 3.33579709,9.40683515 C3.37968916,9.43577102 3.42358123,9.45023896 3.46661267,9.47917483 C3.83151926,9.68087489 4.19556523,9.83917113 4.53034982,9.96853151 C5.12762618,10.2136354 5.84108743,10.4298034 6.67159419,10.5880996 C7.76459272,10.7897997 9.04606895,10.8621393 10.4445907,10.6025675 C11.1296512,10.4732072 11.8284817,10.2859751 12.5574343,9.98299944 C13.0669265,9.79576732 13.6349415,9.52257864 14.2322179,9.13364647 C14.2322179,9.13364647 13.504126,10.300443 11.5952514,10.8332035 C12.0324508,11.365964 12.5574343,11.9855321 12.5574343,11.9855321 C15.7649977,11.8851076 16.9913937,9.8247032 17,9.8247032 C17,5.22985678 14.9026477,1.49883128 14.9026477,1.49883128 C12.8190655,-0.0432805432 10.8232674,0.00012326629 10.8232674,0.00012326629 Z" id="Fill-1"></path>
                        </g>
                    </g>
                </g>
            </g>
        </g>
    </g>
</svg>