<?xml version="1.0" encoding="UTF-8"?>
<svg width="27px" height="23px" viewBox="0 0 27 23" version="1.1" xmlns="http://www.w3.org/2000/svg" xmlns:xlink="http://www.w3.org/1999/xlink">
    <!-- Generator: sketchtool 52.6 (67491) - http://www.bohemiancoding.com/sketch -->
    <title>EDA54D5A-515E-49DD-AD0E-4E00FD8F78E5</title>
    <desc>Created with sketchtool.</desc>
    <g id="Symbols" stroke="none" stroke-width="1" fill="none" fill-rule="evenodd">
        <g id="icon/social/twitter-copy-2" transform="translate(2.000000, -2.000000)" fill="#FFFFFF">
            <path d="M-0.344698552,12.0165692 C-0.344698552,12.0165692 11.5967512,6.96758551 15.7382944,5.18977434 C17.325886,4.47864987 22.7098922,2.20305157 22.7098922,2.20305157 C22.7098922,2.20305157 25.1948182,1.20747731 24.987741,3.6253005 C24.9187153,4.62087476 24.3665095,8.10538466 23.8143038,11.8743444 C22.9859951,17.2077779 22.0886608,23.0389985 22.0886608,23.0389985 C22.0886608,23.0389985 21.9506093,24.6745848 20.7771721,24.9590346 C19.6037348,25.2434844 17.6710146,23.9634603 17.325886,23.6790106 C17.0497831,23.4656732 12.1489569,20.2656131 10.3542882,18.7011393 C9.87110815,18.2744646 9.31890238,17.4211152 10.4233139,16.425541 C12.9082399,14.0788302 15.8763459,11.1632199 17.6710146,9.31429626 C18.4993233,8.4609469 19.3276319,6.46979838 15.8763459,8.88762158 C10.9755197,12.3721315 6.14371922,15.643304 6.14371922,15.643304 C6.14371922,15.643304 5.03930768,16.3544285 2.96853605,15.7144165 C0.897764425,15.0744045 -1.51813581,14.2210551 -1.51813581,14.2210551 C-1.51813581,14.2210551 -3.17475311,13.1543684 -0.344698552,12.0165692" id="tlgrm"></path>
        </g>
    </g>
</svg>