<svg xmlns="http://www.w3.org/2000/svg" width="17" height="19" viewBox="0 0 17 19">
    <defs>
        <linearGradient id="prefix__a" x1="50%" x2="50%" y1="0%" y2="100%">
            <stop offset="0%" stop-color="#FCF7E9"/>
            <stop offset="100%" stop-color="#B8A978"/>
        </linearGradient>
    </defs>
    <path fill="url(#prefix__a)" fill-rule="evenodd" d="M10.539 9.806c-.039.006-.078.008-.117.008-.563 0-1.026-.558-1.026-1.252 0-.695.452-1.253 1.026-1.253.039 0 .077.003.115.008.03-.005.062-.008.093-.008.45 0 .818.558.818 1.253 0 .694-.36 1.252-.818 1.252-.03 0-.061-.002-.091-.008zm-3.904 0c-.03.006-.062.008-.093.008-.45 0-.818-.558-.818-1.252 0-.695.36-1.253.818-1.253.031 0 .062.003.092.008.038-.005.077-.008.116-.008.574 0 1.036.558 1.026 1.253 0 .694-.452 1.252-1.026 1.252-.039 0-.077-.002-.115-.008zm4.618 2.602c2.138-.067 2.955-1.437 2.96-1.437 0-3.057-1.397-5.538-1.397-5.538-1.389-1.026-2.718-.997-2.718-.997l-.137.153c1.651.489 2.418 1.207 2.418 1.207-1.01-.536-2-.804-2.923-.91-.698-.077-1.369-.057-1.96.02-.059 0-.108.01-.166.019-.34.038-1.165.153-2.204.603-.359.154-.573.268-.573.268s.797-.757 2.544-1.245L7 4.436s-1.32-.029-2.719.997c0 0-1.397 2.481-1.397 5.538 0 0 .815 1.38 2.96 1.446 0 0 .36-.421.651-.785-1.213-.359-1.684-1.097-1.698-1.12.012.007.107.071.27.162.01 0 .02.01.04.019.03.019.058.029.087.048.243.134.486.24.71.325.397.163.873.307 1.426.413.729.133 1.583.181 2.515.01.456-.087.922-.212 1.408-.413.34-.125.718-.306 1.116-.565 0 0-.485.775-1.757 1.13.29.355.64.767.64.767zM15 0c1.097 0 1.99.881 2 1.964V19l-2.097-1.792-1.175-1.064-1.242-1.13.514 1.754H1.99c-1.096 0-1.99-.882-1.99-1.965V1.964C0 .881.894 0 1.99 0H15z"/>
</svg>
