<?xml version="1.0" encoding="UTF-8"?>
<svg width="27px" height="19px" viewBox="0 0 27 19" version="1.1" xmlns="http://www.w3.org/2000/svg" xmlns:xlink="http://www.w3.org/1999/xlink">
    <!-- Generator: sketchtool 52.6 (67491) - http://www.bohemiancoding.com/sketch -->
    <title>1A73D6B5-0ED5-4C6F-8AE7-E3055BE9EF1B</title>
    <desc>Created with sketchtool.</desc>
    <g id="Symbols" stroke="none" stroke-width="1" fill="none" fill-rule="evenodd">
        <g id="icon/social/twitter-copy" transform="translate(0.000000, -4.000000)" fill="#FFFFFF">
            <path d="M18.4173992,21.1523297 C21.4483177,20.3078342 22.6050318,18.4615086 22.6050318,18.4615086 C21.6556532,19.0773987 20.7540164,19.5104044 19.9437708,19.8062468 C18.7870567,20.2863183 17.6767202,20.5821607 16.5895726,20.7879057 C14.3675356,21.1980508 12.3323734,21.0837481 10.5959382,20.7650451 C9.27826614,20.5135791 8.14474083,20.1720156 7.19536223,19.7833863 C6.66338284,19.5789861 6.08502577,19.32752 5.50666869,19.0088171 C5.43710215,18.963096 5.36753562,18.9402354 5.29796908,18.8945143 C5.25159139,18.8716538 5.22840255,18.8487932 5.2052137,18.8487932 C4.81509548,18.6336351 4.58729918,18.4816797 4.56001819,18.4628534 C4.59275538,18.5179876 5.71536829,20.2769052 8.60715368,21.1294692 C7.91285238,21.9968253 7.05622916,23 7.05622916,23 C1.94377084,22.8399762 2.18491891e-13,19.5561255 2.18491891e-13,19.5561255 C2.18491891e-13,12.2797472 3.3310094,6.37231232 3.3310094,6.37231232 C6.66338284,3.93161251 9.81024553,4.00019416 9.81024553,4.00019416 L10.0407699,4.27317601 C5.87632616,5.43637455 3.97893301,7.23832372 3.97893301,7.23832372 C3.97893301,7.23832372 4.4890876,6.96534186 5.34434677,6.59957308 C7.820097,5.52781674 9.78705668,5.25483489 10.5959382,5.16339269 C10.7350712,5.14053214 10.8510155,5.11767159 10.9901485,5.11767159 C12.4005759,4.9347872 13.9978781,4.8890661 15.6633828,5.0719505 C17.8608669,5.32341654 20.222037,5.96216718 22.6282207,7.23832372 C22.6282207,7.23832372 20.8003941,5.52781674 16.8664747,4.36461821 L17.1911185,4.00019416 C17.1911185,4.00019416 20.359806,3.93161251 23.6689906,6.37231232 C23.6689906,6.37231232 27,12.2797472 27,19.5561255 C26.9863595,19.5561255 25.0384965,22.8171156 19.9437708,22.9771395 C19.9437708,22.9771395 19.1103365,21.9968253 18.4173992,21.1523297 Z M8.99984238,17 C10.1176734,17 10.9996848,15.6639871 10.9996848,14 C11.0193364,12.3360129 10.1176734,11 8.99984238,11 C7.88201141,11 7,12.3360129 7,14 C7,15.6639871 7.90166304,17 8.99984238,17 Z M19,17 C20.1179191,17 21,15.6639871 21,14 C21,12.3360129 20.0982659,11 19,11 C17.8820809,11 17,12.3360129 17,14 C17,15.6639871 17.9017341,17 19,17 Z" id="discord"></path>
        </g>
    </g>
</svg>