<?xml version="1.0" encoding="UTF-8"?>
<svg width="13px" height="25px" viewBox="0 0 13 25" version="1.1" xmlns="http://www.w3.org/2000/svg" xmlns:xlink="http://www.w3.org/1999/xlink">
    <!-- Generator: sketchtool 52.6 (67491) - http://www.bohemiancoding.com/sketch -->
    <title>F7D7ADD3-F771-42C5-9FC9-99E12CE07EE0</title>
    <desc>Created with sketchtool.</desc>
    <g id="Symbols" stroke="none" stroke-width="1" fill="none" fill-rule="evenodd">
        <g id="icon/social/twitter-copy-3" transform="translate(-7.000000, -1.000000)" fill="#FFFFFF">
            <path d="M15.4151786,26 L10.8303571,26 L10.8303571,14.6150235 L7,14.6150235 L7,10.1549296 L10.8303571,10.1549296 L10.8303571,6.8685446 C10.8303571,4.99060094 11.3526733,3.54304108 12.3973214,2.5258216 C13.4419695,1.50860211 14.8348127,1 16.5758929,1 C17.968757,1 19.1101146,1.05868486 20,1.17605634 L20,5.10798122 L17.6205357,5.16666667 C16.769341,5.16666667 16.1889896,5.34272124 15.8794643,5.69483568 C15.5699389,6.04695012 15.4151786,6.57511385 15.4151786,7.27934272 L15.4151786,10.1549296 L19.8258929,10.1549296 L19.2455357,14.6150235 L15.4151786,14.6150235 L15.4151786,26 Z" id="fb"></path>
        </g>
    </g>
</svg>