<svg xmlns="http://www.w3.org/2000/svg" width="11" height="15" viewBox="0 0 11 15">
    <path fill="#FFF" fill-rule="evenodd" d="M6.292 9.873v1.282c0 .485-.349.845-.828.845-.408 0-.756-.36-.756-.845V9.873C4.288 9.562 4 9.077 4 8.529 4 7.671 4.708 7 5.464 7 6.292 7 7 7.671 7 8.53c0 .547-.3 1.032-.708 1.343M5.499 2C6.327 2 7 2.591 7 3.318V4c-.477-.12-.98-.19-1.5-.19S4.476 3.88 4 4v-.682C4 2.59 4.672 2 5.5 2m3.506 3.328V3.494C9.006 1.567 7.432 0 5.495 0 3.559 0 1.983 1.567 1.983 3.494V5.33C.776 6.333 0 7.838 0 9.533 0 12.54 2.45 15 5.495 15S11 12.54 11 9.533c0-1.697-.777-3.204-1.994-4.205"/>
</svg>
