<svg xmlns="http://www.w3.org/2000/svg" width="20" height="17" viewBox="0 0 20 17">
    <defs>
        <linearGradient id="prefix__a" x1="50%" x2="50%" y1="0%" y2="100%">
            <stop offset="0%" stop-color="#FCF7E9"/>
            <stop offset="100%" stop-color="#B8A978"/>
        </linearGradient>
    </defs>
    <path fill="url(#prefix__a)" fill-rule="evenodd" d="M1.226 7.404s8.846-3.732 11.913-5.046C14.315 1.832 18.304.15 18.304.15s1.84-.736 1.687 1.051c-.051.736-.46 3.312-.87 6.097-.613 3.943-1.278 8.253-1.278 8.253s-.102 1.208-.971 1.419c-.87.21-2.3-.736-2.557-.946-.204-.158-3.834-2.523-5.164-3.68-.358-.315-.767-.946.051-1.682 1.841-1.734 4.04-3.89 5.37-5.256.613-.63 1.226-2.102-1.33-.315-3.63 2.575-7.21 4.993-7.21 4.993s-.818.526-2.352.053C2.146 9.664.357 9.033.357 9.033s-1.227-.788.87-1.63"/>
</svg>
