<?xml version="1.0" encoding="UTF-8"?>
<svg width="27px" height="24px" viewBox="0 0 27 24" version="1.1" xmlns="http://www.w3.org/2000/svg" xmlns:xlink="http://www.w3.org/1999/xlink">
    <!-- Generator: sketchtool 52.6 (67491) - http://www.bohemiancoding.com/sketch -->
    <title>4CEA27A6-7ED8-4BA1-9147-652C3719E7B0</title>
    <desc>Created with sketchtool.</desc>
    <g id="Symbols" stroke="none" stroke-width="1" fill="none" fill-rule="evenodd">
        <g id="icon/social/twitter" transform="translate(0.000000, -2.000000)" fill="#FFFFFF">
            <path d="M24.2177986,7.96531792 L24.2177986,8.7283237 C24.2177986,10.809259 23.8700269,12.8554813 23.1744731,14.867052 C22.4789192,16.8786228 21.4882968,18.7167547 20.2025761,20.3815029 C18.9168554,22.0462511 17.2517667,23.3988387 15.20726,24.4393064 C13.1627532,25.479774 10.918045,26 8.47306792,26 C5.39576916,26 2.57144143,25.0982749 0,23.2947977 C0.421547775,23.3410407 0.8641663,23.3641618 1.32786885,23.3641618 C3.89931028,23.3641618 6.19671119,22.5086791 8.22014052,20.7976879 C6.99765197,20.7514449 5.91218273,20.335264 4.96370023,19.5491329 C4.01521774,18.7630018 3.37236703,17.7687921 3.03512881,16.566474 C3.37236703,16.65896 3.70960019,16.7052023 4.04683841,16.7052023 C4.55269574,16.7052023 5.03746841,16.6127177 5.50117096,16.4277457 C4.23652763,16.1502876 3.182674,15.4566529 2.33957845,14.3468208 C1.4964829,13.2369887 1.07494145,11.9653251 1.07494145,10.5317919 L1.07494145,10.4624277 C1.87588222,10.9248578 2.71896513,11.1791905 3.60421546,11.2254335 C1.96017913,9.97687237 1.1381733,8.28902798 1.1381733,6.16184971 C1.1381733,5.05201757 1.39109817,4.03468671 1.8969555,3.10982659 C3.28806316,4.95954682 4.96369043,6.43930081 6.92388759,7.54913295 C8.88408474,8.65896509 11.0023305,9.2832363 13.2786885,9.42196532 C13.194379,8.95953526 13.1522248,8.49711214 13.1522248,8.03468208 C13.1522248,6.36993387 13.6896902,4.94798277 14.764637,3.76878613 C15.8395838,2.58958948 17.1358238,2 18.6533958,2 C20.2552773,2 21.60421,2.62427121 22.7002342,3.87283237 C23.9648775,3.59537434 25.1451936,3.10983006 26.2412178,2.41618497 C25.81967,3.84971815 24.9976642,4.95953364 23.7751756,5.74566474 C24.9133546,5.60693572 25.9882853,5.30636069 27,4.84393064 C26.241214,6.04624879 25.3138228,7.08670081 24.2177986,7.96531792 Z" id="tw"></path>
        </g>
    </g>
</svg>