<svg xmlns="http://www.w3.org/2000/svg" width="76" height="23" viewBox="0 0 76 23">
    <g fill="none" fill-rule="evenodd">
        <path fill="#6D7E8E" d="M70.685 17.947c-.247 0-.466.035-.658.104-.191.07-.357.17-.496.299-.138.128-.252.282-.34.46-.088.178-.15.373-.185.586h3.285c-.075-.458-.25-.815-.528-1.068-.278-.254-.637-.38-1.078-.38zM75 22.84v-.357h-.1l-.115.245-.116-.245h-.1v.357h.07v-.27l.109.232h.074l.107-.232v.27H75zm-.635 0v-.296h.129v-.06h-.327v.06h.128v.296h.07zm-3.653-6.034c.44 0 .844.075 1.212.224.368.15.683.36.945.632.263.272.467.598.615.976.148.379.221.797.221 1.256 0 .081-.003.163-.006.245-.005.082-.012.16-.02.233h-4.68c.044.266.126.493.245.681.12.189.262.343.43.464.167.12.354.21.562.267.207.057.423.086.647.086.318 0 .636-.054.955-.162.32-.11.611-.262.876-.458l.687.914c-.388.308-.799.523-1.233.645-.433.123-.89.184-1.37.184-.476 0-.913-.074-1.31-.22-.396-.148-.738-.356-1.024-.626-.286-.27-.509-.596-.667-.977-.159-.38-.238-.804-.238-1.27 0-.459.077-.878.231-1.258.154-.381.37-.707.648-.98.278-.272.609-.482.994-.632.386-.15.813-.224 1.28-.224zm-7.806 1.209c-.3 0-.567.05-.803.15-.236.1-.435.236-.598.405-.163.17-.289.37-.377.599-.088.23-.132.473-.132.73 0 .258.044.502.132.731.088.23.214.429.377.599.163.17.362.304.598.405.236.1.503.15.803.15.286 0 .546-.048.78-.144.234-.096.434-.228.601-.396.168-.168.297-.366.39-.595.092-.23.139-.48.139-.75s-.047-.52-.14-.748c-.092-.23-.221-.428-.389-.595-.167-.168-.367-.3-.601-.397-.234-.096-.494-.144-.78-.144zm-.165-1.21c.453 0 .843.08 1.17.237.325.158.599.368.82.63V14h1.38v8.84h-1.38v-.706c-.221.262-.495.47-.82.626-.327.156-.717.233-1.17.233-.445 0-.86-.076-1.243-.23-.383-.154-.718-.367-1.004-.642-.287-.273-.512-.6-.675-.979-.163-.378-.244-.793-.244-1.243 0-.45.081-.864.244-1.243.163-.378.388-.705.675-.979.286-.274.62-.488 1.004-.641.383-.154.798-.23 1.243-.23zm-7.568 1.21c-.283 0-.544.046-.787.138-.242.092-.451.221-.627.387-.177.165-.316.364-.417.595-.101.232-.152.486-.152.764 0 .279.051.534.152.765.101.231.24.43.417.595.176.166.385.294.627.387.243.092.504.138.787.138.282 0 .544-.046.786-.138.242-.093.453-.221.631-.387.18-.165.319-.364.42-.595.102-.231.152-.486.152-.765 0-.278-.05-.532-.151-.764-.102-.23-.242-.43-.42-.595-.179-.166-.39-.295-.632-.387-.242-.092-.504-.138-.786-.138zm0-1.21c.49 0 .942.08 1.358.237.417.158.776.375 1.08.651.305.276.542.602.715.978.171.377.257.787.257 1.228 0 .443-.086.852-.257 1.228-.173.377-.41.703-.715.98-.304.275-.663.492-1.08.65-.416.157-.869.236-1.358.236-.49 0-.942-.079-1.358-.236-.417-.158-.776-.375-1.077-.65-.303-.277-.539-.603-.711-.98-.172-.376-.257-.785-.257-1.228 0-.441.085-.85.257-1.228.173-.376.408-.702.71-.978s.661-.493 1.078-.651c.416-.158.869-.236 1.358-.236zm-8.163-2.719c.41 0 .807.041 1.19.123.384.082.74.2 1.07.356.331.156.632.345.9.568.269.223.494.473.674.752l-1.249.773c-.282-.385-.644-.687-1.087-.908-.444-.22-.942-.331-1.497-.331-.472 0-.908.075-1.31.226-.4.152-.746.365-1.037.639-.29.274-.519.604-.683.988-.166.385-.248.809-.248 1.27 0 .464.082.887.248 1.272.164.384.393.713.683.988.291.274.637.487 1.038.638.4.152.837.227 1.309.227.55 0 1.045-.108 1.483-.325.439-.217.803-.52 1.094-.908l1.217.829c-.199.27-.43.51-.697.724-.267.213-.562.395-.887.546-.324.151-.672.267-1.044.347-.372.08-.76.12-1.166.12-.71 0-1.362-.112-1.956-.335-.595-.223-1.106-.533-1.534-.93-.427-.397-.76-.867-.998-1.412-.237-.544-.357-1.137-.357-1.78s.12-1.236.357-1.78c.238-.545.57-1.015.998-1.412.428-.397.939-.707 1.534-.93.594-.223 1.246-.335 1.955-.335zm-8.981 3.861c-.247 0-.466.035-.658.104-.191.07-.357.17-.496.299-.138.128-.252.282-.34.46-.088.178-.15.373-.185.586h3.285c-.075-.458-.251-.815-.529-1.068-.278-.254-.636-.38-1.077-.38zm.027-1.141c.44 0 .844.075 1.212.224.369.15.683.36.946.632.261.272.466.598.614.976.147.379.22.797.22 1.256 0 .081-.001.163-.005.245-.005.082-.011.16-.02.233h-4.68c.044.266.126.493.245.681.119.189.262.343.43.464.167.12.354.21.561.267.207.057.423.086.647.086.318 0 .636-.054.956-.162.32-.11.611-.262.876-.458l.687.914c-.388.308-.799.523-1.232.645-.435.123-.891.184-1.372.184-.476 0-.912-.074-1.309-.22-.396-.148-.738-.356-1.024-.626-.287-.27-.509-.596-.668-.977-.158-.38-.238-.804-.238-1.27 0-.459.078-.878.232-1.258.154-.381.37-.707.647-.98.278-.272.61-.482.995-.632.386-.15.812-.224 1.28-.224zm-4.64 0c.211 0 .401.013.571.04.17.026.334.068.492.125l-.33 1.271c-.145-.07-.315-.122-.509-.16-.194-.037-.375-.055-.542-.055-.22 0-.423.035-.608.105-.185.07-.344.171-.476.306-.132.136-.235.301-.31.497-.076.197-.113.42-.113.67v3.235H30.21v-5.88h1.368v.662c.211-.283.474-.489.787-.62.312-.131.663-.196 1.05-.196zm-5.043 3.542c0 .466-.084.867-.251 1.203-.168.335-.388.61-.661.822-.273.213-.586.37-.939.47-.352.1-.714.15-1.084.15-.37 0-.731-.05-1.084-.15-.352-.1-.666-.257-.941-.47-.276-.212-.496-.487-.661-.822-.166-.336-.248-.737-.248-1.203v-3.389h1.388v3.272c0 .282.04.523.119.721.079.199.188.36.327.482.139.123.303.212.492.267.19.055.392.083.608.083.216 0 .419-.028.609-.083.189-.055.353-.144.492-.267.139-.123.248-.283.327-.482.079-.198.119-.439.119-.721v-3.272h1.388v3.389zm-9.451-3.542c.476 0 .919.078 1.328.236.41.158.756.392 1.038.703l-.886.877c-.224-.196-.458-.346-.7-.45-.243-.105-.516-.157-.82-.157-.264 0-.511.046-.74.138-.23.092-.427.221-.595.387-.167.165-.299.364-.393.595-.095.232-.142.486-.142.764 0 .279.047.534.142.765.094.231.226.43.393.595.168.165.366.294.595.387.229.092.476.138.74.138.304 0 .588-.059.853-.175.264-.116.498-.263.7-.439l.853.884c-.29.31-.639.545-1.044.703-.406.157-.846.236-1.322.236-.502 0-.958-.079-1.368-.236-.41-.158-.76-.375-1.051-.65-.29-.277-.516-.603-.674-.98-.159-.376-.238-.785-.238-1.228 0-.441.08-.85.238-1.228.158-.376.383-.702.674-.978.29-.276.641-.493 1.05-.651.41-.158.866-.236 1.369-.236zm-7.343 1.141c-.247 0-.466.035-.657.104-.192.07-.357.17-.496.299-.139.128-.252.282-.34.46-.089.178-.15.373-.185.586h3.284c-.075-.458-.25-.815-.529-1.068-.277-.254-.636-.38-1.077-.38zm.027-1.141c.44 0 .845.075 1.213.224.367.15.682.36.945.632.262.272.467.598.614.976.148.379.222.797.222 1.256 0 .081-.003.163-.007.245-.005.082-.011.16-.02.233h-4.68c.045.266.127.493.245.681.12.189.263.343.43.464.167.12.354.21.562.267.207.057.423.086.647.086.318 0 .636-.054.955-.162.32-.11.612-.262.876-.458l.687.914c-.387.308-.798.523-1.232.645-.434.123-.891.184-1.371.184-.476 0-.913-.074-1.309-.22-.396-.148-.738-.356-1.024-.626-.287-.27-.51-.596-.668-.977-.159-.38-.238-.804-.238-1.27 0-.459.077-.878.231-1.258.155-.381.37-.707.648-.98.278-.272.61-.482.995-.632.385-.15.812-.224 1.279-.224zm-5.043-.657c-.397-.233-.81-.414-1.242-.544-.432-.129-.884-.193-1.356-.193-.308 0-.59.03-.845.09-.256.058-.475.144-.658.257-.183.113-.325.248-.426.405-.102.158-.152.335-.152.531 0 .18.044.334.132.46.088.127.215.235.38.323.165.088.367.16.605.218.238.057.507.106.806.147l.641.08c.374.049.74.125 1.097.227.357.102.675.245.955.43.28.184.505.415.674.693.17.278.255.616.255 1.013 0 .438-.1.825-.297 1.16-.199.336-.468.618-.807.847-.34.23-.733.404-1.18.522-.447.119-.922.178-1.424.178-.313 0-.638-.024-.975-.074-.337-.049-.67-.121-.998-.217-.328-.097-.642-.216-.942-.36-.3-.143-.568-.31-.806-.503l.813-1.105c.159.135.349.26.572.375.222.114.461.215.717.3.255.086.52.153.796.2.275.047.548.07.816.07.304 0 .587-.028.85-.085.262-.058.49-.142.684-.252.193-.11.347-.244.459-.402.113-.157.169-.334.169-.53 0-.337-.178-.592-.532-.768-.355-.176-.872-.307-1.55-.393l-.72-.092c-.344-.045-.68-.119-1.009-.221-.328-.102-.62-.246-.879-.433-.258-.186-.465-.419-.62-.7-.158-.28-.236-.62-.236-1.021 0-.43.096-.812.288-1.145.192-.334.453-.614.783-.841.33-.228.717-.4 1.16-.519.443-.119.915-.178 1.418-.178.674 0 1.283.082 1.827.248.544.166 1.05.392 1.517.679l-.76 1.123z"/>
        <path fill="#AFBFCE" d="M70.582 4.44c-.31 0-.587.055-.831.165-.245.112-.451.261-.62.449-.169.188-.3.408-.39.661-.091.254-.137.523-.137.808 0 .285.046.554.136.808.092.253.222.474.39.662.17.187.376.336.62.448.245.11.522.166.832.166.297 0 .566-.053.81-.16.24-.106.448-.252.622-.438.173-.185.308-.404.404-.658.096-.253.144-.53.144-.828 0-.299-.048-.575-.144-.828-.096-.254-.23-.473-.404-.659-.174-.185-.381-.331-.623-.437-.243-.106-.512-.16-.809-.16zm4.922 5.025v.102h.095c.022 0 .04-.004.052-.012.013-.009.02-.022.02-.04 0-.016-.007-.029-.02-.037-.013-.009-.03-.013-.052-.013h-.095zm.096-.072c.05 0 .088.01.115.033.027.022.04.052.04.09 0 .032-.01.058-.032.078-.021.021-.052.033-.092.038l.128.145h-.1l-.118-.144h-.037v.144h-.083v-.384h.179zm-.025.516c.045 0 .087-.009.126-.025.039-.017.073-.04.102-.07.03-.028.052-.063.07-.101.016-.04.024-.082.024-.126 0-.045-.008-.087-.025-.126-.017-.04-.04-.073-.07-.103-.028-.029-.062-.051-.101-.068-.04-.017-.08-.025-.126-.025-.045 0-.088.008-.128.025-.04.017-.075.04-.104.068-.029.03-.052.064-.069.103-.016.04-.025.081-.025.126 0 .044.009.086.025.126.017.038.04.073.07.102.028.029.063.052.103.069.04.016.083.025.128.025zm0-.736c.06 0 .114.011.165.033.052.021.097.05.135.088.039.038.07.082.091.132.023.05.034.104.034.16 0 .057-.011.11-.034.16-.021.05-.052.094-.09.132-.04.038-.084.067-.136.089-.051.022-.106.033-.165.033-.06 0-.116-.011-.168-.033-.052-.022-.097-.051-.135-.089-.038-.038-.069-.081-.09-.131-.023-.05-.034-.104-.034-.16 0-.057.01-.11.033-.161.022-.05.053-.094.09-.132.039-.037.084-.067.136-.088.052-.022.108-.033.168-.033zm-5.164-6.071c.47 0 .875.087 1.213.262.337.174.62.406.849.695V0h1.431v9.774h-1.431v-.78c-.229.29-.512.52-.85.692-.337.172-.741.258-1.212.258-.461 0-.89-.085-1.287-.254-.397-.17-.744-.406-1.04-.71-.297-.303-.53-.664-.7-1.083-.168-.418-.253-.876-.253-1.374 0-.498.085-.956.254-1.374.169-.419.402-.78.698-1.083.297-.303.644-.54 1.041-.71.397-.169.826-.254 1.287-.254zm-4.698 0c.22 0 .417.015.593.044.176.03.346.076.51.14l-.343 1.404c-.15-.076-.326-.135-.526-.176-.201-.04-.389-.06-.563-.06-.228 0-.437.037-.629.115-.192.077-.356.19-.493.339-.137.15-.244.332-.322.55-.078.217-.117.463-.117.74v3.577h-1.43V3.272h1.417v.733c.22-.312.49-.54.815-.686.324-.144.687-.217 1.088-.217zm-8.751 1.337c-.31 0-.588.056-.832.166-.245.112-.45.261-.62.449-.168.188-.3.408-.39.661-.091.254-.137.523-.137.808 0 .285.046.554.136.808.092.253.223.474.391.662.17.187.375.336.62.448.244.11.521.166.832.166.296 0 .566-.053.808-.16.242-.106.45-.252.623-.438.174-.185.308-.404.404-.658.097-.253.144-.53.144-.828 0-.299-.047-.575-.144-.828-.096-.254-.23-.473-.404-.659-.174-.185-.381-.331-.623-.437-.242-.106-.512-.16-.808-.16zm3.321 5.335h-1.431v-.78c-.228.29-.512.52-.85.692-.337.172-.741.258-1.212.258-.46 0-.89-.085-1.287-.254-.397-.17-.744-.406-1.04-.71-.298-.303-.53-.664-.699-1.083-.169-.418-.254-.876-.254-1.374 0-.498.085-.956.254-1.374.169-.419.401-.78.698-1.083.297-.303.644-.54 1.041-.71.397-.169.826-.254 1.287-.254.47 0 .875.087 1.213.261.337.175.62.406.849.696v-.787h1.431v6.502zm-10.08-6.672c.493 0 .952.087 1.376.262.425.174.783.433 1.075.777l-.918.97c-.233-.217-.474-.383-.725-.499-.252-.115-.534-.173-.85-.173-.273 0-.528.051-.766.153-.238.102-.443.244-.617.428-.173.183-.31.403-.407.658-.099.255-.147.537-.147.845 0 .308.048.59.147.845.098.255.234.475.407.659.174.183.38.326.617.427.237.102.493.153.766.153.316 0 .61-.065.884-.194s.516-.29.726-.485l.883.978c-.3.344-.662.602-1.081.777-.421.174-.877.261-1.37.261-.52 0-.993-.087-1.418-.261-.424-.175-.788-.414-1.089-.72-.3-.305-.534-.666-.698-1.082-.164-.417-.246-.87-.246-1.358 0-.489.082-.941.246-1.358.164-.416.397-.776.698-1.082.301-.306.665-.545 1.09-.72.424-.174.896-.261 1.416-.261zm-4.897 0c.22 0 .417.015.592.044.177.03.346.076.51.14l-.341 1.404c-.151-.076-.327-.135-.528-.176-.2-.04-.388-.06-.561-.06-.229 0-.439.037-.63.115-.193.077-.357.19-.494.339-.137.15-.244.332-.321.55-.078.217-.117.463-.117.74v3.577h-1.43V3.272h1.417v.733c.219-.312.49-.54.815-.686.323-.144.686-.217 1.088-.217zM37.22 4.365c-.256 0-.483.038-.682.115-.198.077-.37.187-.513.33-.144.142-.262.311-.353.508-.092.197-.155.413-.192.648h3.404c-.078-.506-.26-.9-.548-1.18-.287-.28-.66-.421-1.116-.421zm.027-1.263c.456 0 .876.083 1.257.248.381.165.707.398.98.7.27.3.483.66.636 1.078.153.42.23.882.23 1.388 0 .091-.003.182-.007.272-.005.09-.012.176-.02.258h-4.85c.046.294.13.545.254.753.123.208.272.38.445.513s.367.232.582.295c.215.064.438.095.671.095.329 0 .658-.06.99-.18.331-.12.633-.288.907-.505l.712 1.01c-.401.34-.827.578-1.277.714-.45.135-.923.203-1.42.203-.494 0-.946-.081-1.357-.244-.41-.163-.764-.394-1.061-.692-.297-.3-.527-.659-.692-1.08-.164-.42-.246-.889-.246-1.404 0-.508.08-.971.24-1.392.159-.42.383-.782.67-1.083.288-.3.632-.534 1.031-.699.4-.165.841-.248 1.325-.248zm-4.403 1.46H30.33v2.83c0 .217.027.403.082.556.055.154.13.28.223.377.093.098.203.17.328.214.126.045.261.068.408.068.223 0 .45-.042.681-.13.23-.085.444-.189.64-.311l.569 1.133c-.265.177-.563.329-.894.455-.331.127-.704.19-1.12.19-.744 0-1.323-.204-1.736-.614-.413-.41-.62-1.046-.62-1.91V4.56h-1.307v-1.29h1.308V1.304h1.438v1.969h2.513v1.29zM26.05 4.9c-.1-.059-.224-.121-.37-.187-.146-.065-.308-.125-.486-.18-.178-.054-.367-.099-.565-.135-.199-.036-.4-.054-.606-.054-.393 0-.698.07-.914.213-.217.143-.326.33-.326.56 0 .113.029.208.086.285.057.078.133.14.229.19.096.05.21.09.342.12.133.029.275.055.425.077l.678.102c.717.104 1.276.311 1.678.621.402.31.603.744.603 1.3 0 .312-.068.598-.202.858-.135.26-.33.485-.583.673-.253.187-.566.333-.938.437-.372.104-.793.156-1.263.156-.17 0-.365-.01-.589-.03-.224-.02-.461-.061-.712-.122-.251-.061-.507-.146-.767-.255-.26-.108-.51-.251-.747-.427l.664-1.066c.12.09.248.175.387.254.14.08.297.15.473.21.176.062.37.11.582.147.213.036.453.054.723.054.493 0 .865-.071 1.116-.214.25-.142.377-.336.377-.58 0-.185-.092-.338-.274-.458-.183-.12-.47-.207-.863-.261l-.685-.089c-.73-.1-1.284-.31-1.66-.635-.377-.323-.566-.747-.566-1.272 0-.322.063-.611.189-.869.125-.258.306-.476.54-.655.236-.179.52-.316.853-.414.333-.097.71-.146 1.13-.146.516 0 1.002.06 1.46.18.455.12.855.288 1.197.506L26.05 4.9zm-9.896-.462c-.31 0-.588.056-.831.166-.245.112-.451.261-.62.449-.17.188-.3.408-.39.661-.092.254-.138.523-.138.808 0 .285.046.554.138.808.09.253.22.474.39.662.169.187.375.336.62.448.243.11.52.166.831.166.297 0 .567-.053.809-.16.242-.106.45-.252.623-.438.173-.185.308-.404.404-.658.096-.253.144-.53.144-.828 0-.299-.048-.575-.144-.828-.096-.254-.23-.473-.404-.659-.174-.185-.381-.331-.623-.437-.242-.106-.512-.16-.809-.16zm3.322 5.335h-1.432v-.78c-.228.29-.51.52-.848.692-.338.172-.743.258-1.213.258-.461 0-.89-.085-1.287-.254-.398-.17-.745-.406-1.041-.71-.297-.303-.53-.664-.698-1.083-.17-.418-.254-.876-.254-1.374 0-.498.085-.956.254-1.374.169-.419.401-.78.698-1.083.296-.303.643-.54 1.041-.71.397-.169.826-.254 1.287-.254.47 0 .874.087 1.213.261.337.175.62.406.848.696v-.787h1.432v6.502zm-8.15 0H9.78V1.955l-2.8 6.89h-1.63L2.548 2.03v7.744H1V.272h2.376l2.788 6.787L8.95.272h2.376v9.502z"/>
    </g>
</svg>
