<svg xmlns="http://www.w3.org/2000/svg" width="84" height="20" viewBox="0 0 84 20">
    <g fill="none" fill-rule="evenodd">
        <path fill="#AFBFCE" d="M83.218 7.157c0 1.318-1.068 2.386-2.386 2.386-1.317 0-2.385-1.068-2.385-2.386s1.068-2.386 2.385-2.386c1.318.014 2.386 1.082 2.386 2.386"/>
        <path fill="#6D7E8E" d="M83.218 14.619c0 1.318-1.068 2.386-2.386 2.386-1.317 0-2.385-1.068-2.385-2.386s1.068-2.386 2.385-2.386c1.318 0 2.386 1.068 2.386 2.386M76.061 11.623v-.915c0-3.426-2.399-5.937-5.645-5.937-3.245 0-5.77 2.594-5.77 6.186 0 3.69 2.386 6.047 6.186 6.047 1.054 0 3.162-.194 4.771-1.303l-1.026-2.275c-1.096.624-2.205.902-3.204.902-.083 0-.166 0-.25-.014h-.055c-.083 0-.153-.014-.236-.028-.014 0-.028 0-.055-.014-.07-.014-.125-.014-.181-.028-.027 0-.041-.014-.069-.014-.069-.013-.125-.027-.18-.055-.028-.014-.07-.014-.097-.028l-.125-.041c-.042-.014-.097-.042-.139-.056-.014 0-.028-.014-.042-.014-.069-.041-.152-.07-.208-.111-.152-.097-.291-.194-.416-.32-.055-.04-.097-.096-.138-.151l-.056-.056c-.028-.027-.055-.07-.069-.097-.042-.055-.083-.111-.125-.18-.236-.388-.388-.874-.444-1.484h7.573v-.014zM70.416 7.35c1.013 0 1.803.805 1.942 2.358H68.46c.153-1.567.957-2.358 1.956-2.358zm-31.858.999c0-.555.554-.888 1.47-.888.957 0 1.969.347 2.704.666l1.027-2.4c-.957-.485-2.428-.943-3.912-.943-2.718 0-4.923 1.235-4.923 3.703 0 3.898 5.492 3.177 5.492 4.896 0 .638-.638.957-1.72.957-1.095 0-2.15-.36-2.982-.776l-1.165 2.358c1.373.735 2.982 1.08 4.466 1.08 2.649 0 4.952-1.372 4.952-3.896-.014-3.842-5.409-3.204-5.409-4.757zM17.379 4.785c-2.261 0-4.05.708-5.146 1.4l1.012 2.082c.666-.292 2.067-.82 3.246-.82.846 0 1.609.293 1.609 1.194v.777c-5.063-.375-6.505 1.844-6.505 3.897 0 2.01 1.692 3.689 3.925 3.689.888 0 1.845-.332 2.566-.79v.513h3.662V8.599c.013-2.635-1.665-3.814-4.369-3.814zm.846 9.376c-.347.25-.874.458-1.443.458-.915 0-1.539-.527-1.539-1.373 0-.957.763-1.9 2.982-1.54v2.455zm32.607-9.376c-2.261 0-4.05.708-5.145 1.4l1.012 2.082c.666-.292 2.067-.82 3.245-.82.847 0 1.609.293 1.609 1.194v.777c-5.048-.361-6.504 1.858-6.504 3.91 0 2.012 1.692 3.69 3.925 3.69.887 0 1.844-.333 2.566-.79v.513h3.661V8.613c.014-2.65-1.664-3.828-4.369-3.828zm.708 9.376c-.347.25-.874.458-1.443.458-.915 0-1.539-.527-1.539-1.373 0-.957.762-1.9 2.982-1.54v2.455zm6.657-9.584v.486h-1.942v2.496h1.942v9.182h3.634V7.559h2.524V5.063h-2.524v-.624c0-1.027.416-1.762 1.539-1.762.347 0 .777.069 1.082.167V.236C63.953.096 63.37 0 62.718 0c-2.954 0-4.521 1.803-4.521 4.577zm-27.06.472l-2.524 6.976-2.899-6.976h-3.745l4.938 11.123L25.368 20h3.481l5.922-14.951h-3.634zM6.061.929H0v15.798h3.759v-5.77h2.316c3.051 0 5.34-1.9 5.34-5.132C11.401 3.038 9.681.93 6.061.93zm-.416 7.282h-1.9V3.676h1.9c1.345 0 2.108.943 2.108 2.288 0 1.457-.846 2.247-2.108 2.247z"/>
    </g>
</svg>
