<svg xmlns="http://www.w3.org/2000/svg" width="114" height="25" viewBox="0 0 114 25">
    <g fill="none" fill-rule="evenodd">
        <path fill="#6D7E8E" d="M112.19 6.104c0-2.61-2.13-4.724-4.755-4.724H5.704C3.08 1.38.95 3.495.95 6.104v13.227c0 2.609 2.129 4.724 4.753 4.724h101.73c2.626 0 4.755-2.115 4.755-4.724V6.104zm-4.755 18.897H5.704C2.553 25 0 22.46 0 19.33V6.104C0 2.973 2.553.436 5.704.436h101.73c3.152 0 5.706 2.537 5.706 5.668v13.227c0 3.13-2.554 5.67-5.705 5.67z"/>
        <path fill="#6D7E8E" d="M10.235 10.296h-.963v2.234h.963c.734 0 1.251-.45 1.251-1.112 0-.67-.517-1.122-1.251-1.122zm.178 3.233h-1.14v2.37H8V9.298h2.413c1.39 0 2.383.873 2.383 2.12 0 1.248-.993 2.112-2.383 2.112zm5.58-1.516c-.744 0-1.26.605-1.26 1.487 0 .884.516 1.487 1.26 1.487.736 0 1.251-.603 1.251-1.487 0-.882-.515-1.487-1.251-1.487zm0 4.001c-1.499 0-2.561-1.046-2.561-2.514 0-1.477 1.062-2.513 2.56-2.513 1.5 0 2.552 1.036 2.552 2.513 0 1.468-1.051 2.514-2.551 2.514zm7.766-.114l-1.014-3.264-1.002 3.264h-1.142l-1.708-4.798h1.27l1.003 3.262 1.004-3.262h1.151l1.002 3.262 1.003-3.262h1.272L24.9 15.9h-1.14zm5.59-3.965c-.617 0-1.093.443-1.152 1.104h2.164c-.04-.652-.447-1.104-1.013-1.104zm-1.152 1.9c.08.73.675 1.23 1.51 1.23.455 0 .962-.164 1.479-.452v1.027c-.568.249-1.133.374-1.69.374-1.498 0-2.55-1.055-2.55-2.552 0-1.45 1.032-2.475 2.452-2.475 1.3 0 2.185.988 2.185 2.398 0 .135 0 .287-.02.45h-3.366zm5.669-1.141V15.9h-1.27v-4.798h1.27v.479c.357-.384.795-.594 1.222-.594.139 0 .278.01.417.047v1.095c-.14-.04-.299-.057-.447-.057-.417 0-.864.22-1.192.622zm4.498-.759c-.615 0-1.092.443-1.151 1.104h2.164c-.039-.652-.447-1.104-1.013-1.104zm-1.151 1.9c.08.73.675 1.23 1.507 1.23.458 0 .965-.164 1.48-.452v1.027c-.565.249-1.13.374-1.687.374-1.499 0-2.552-1.055-2.552-2.552 0-1.45 1.033-2.475 2.452-2.475 1.301 0 2.184.988 2.184 2.398 0 .135 0 .287-.018.45h-3.366zm7.564-1.362c-.287-.287-.634-.432-.981-.432-.725 0-1.222.595-1.222 1.459 0 .864.497 1.459 1.222 1.459.347 0 .694-.145.981-.432v-2.054zm0 3.09c-.386.297-.823.451-1.26.451-1.32 0-2.243-1.037-2.243-2.514 0-1.477.923-2.513 2.244-2.513.436 0 .873.153 1.259.441V9h1.281v6.9h-1.281v-.337zm7.408-3.522c-.346 0-.695.145-.992.432v2.054c.297.287.646.432.992.432.716 0 1.211-.595 1.211-1.459 0-.864-.495-1.459-1.21-1.459zm.27 3.973c-.427 0-.865-.154-1.262-.451v.337h-1.27V9h1.27v2.428c.397-.288.835-.44 1.261-.44 1.33 0 2.242 1.035 2.242 2.512s-.912 2.514-2.242 2.514zM57.178 18h-1.23l.952-2.274-1.895-4.624h1.3l1.192 3.147 1.2-3.147H60L57.18 18z"/>
        <path fill="#AFBFCE" d="M72.888 15.075c0 1.92-1.554 3.014-3.81 3.014-.934 0-1.955-.179-2.963-.605v-2.546c.908.487 2.068.853 2.968.853.604 0 1.04-.16 1.04-.653 0-1.272-4.123-.794-4.123-3.746 0-1.886 1.466-3.016 3.667-3.016.897 0 1.794.135 2.694.487v2.513c-.825-.44-1.872-.687-2.696-.687-.57 0-.922.16-.922.578 0 1.2 4.145.627 4.145 3.808zm3.38-.454c0 1.57 1.712 1.081 2.059.945v2.17c-.362.196-1.018.353-1.904.353-1.609 0-2.816-1.165-2.816-2.743l.012-8.556 2.647-.553.002 2.316h2.059v2.273h-2.06v3.795zm5.814-3.059V17.9H79.37V8.553h2.345l.169.788c.636-1.148 1.903-.915 2.264-.788v2.452c-.346-.11-1.427-.27-2.067.557zm2.902-5.993L87.707 5v2.17l-2.723.571V5.57zm0 12.33h2.723V8.553h-2.723V17.9zm7.925-7.162c-.623 0-1.014.223-1.296.53l.015 3.961c.265.28.644.506 1.28.506 1.003 0 1.675-1.073 1.675-2.509 0-1.395-.683-2.488-1.674-2.488zm.63 7.352c-.947 0-1.528-.393-1.918-.674l-.006 3.016-2.71.569V8.553h2.386l.142.657c.374-.343 1.06-.834 2.124-.834 1.903 0 3.698 1.685 3.698 4.79 0 3.39-1.774 4.923-3.715 4.923zm8.524-7.54c-.678 0-1.432.504-1.432 1.705h2.804c0-1.2-.707-1.705-1.372-1.705zm3.901 3.673h-5.309c.122 1.25 1.053 1.619 2.11 1.619 1.076 0 1.925-.224 2.664-.59v2.148c-.738.4-1.71.69-3.005.69-2.642 0-4.493-1.626-4.493-4.842 0-2.715 1.57-4.87 4.149-4.87 2.576 0 3.92 2.153 3.92 4.885 0 .259-.023.816-.036.96z"/>
    </g>
</svg>
