<svg xmlns="http://www.w3.org/2000/svg" width="60" height="34" viewBox="0 0 60 34">
    <g fill="none" fill-rule="evenodd">
        <path fill="#6D7E8E" d="M20.88 22l-.555 3.959c.47-.462 1.044-.748 1.686-.748.732 0 1.324.399 1.666 1.026l1.762.001.865 2.66 1.68-2.66h1.87L24.949 34h-1.87l2.069-3.273L24 27.59c0 .167-.012.34-.038.515C23.73 29.704 22.485 31 21.166 31c-.65 0-1.116-.299-1.434-.8l-.088.627H18L19.235 22h1.644zm31.12.327c-.08.66-.187 1.292-.318 1.898-.553-.183-1.19-.478-2.091-.416-.538.037-1.173.247-1.182.74-.01.547.873.872 1.364 1.112.885.43 1.835 1.006 1.909 2.176.056.899-.353 1.681-.818 2.13-1.24 1.192-3.988 1.318-5.864.555.117-.637.223-1.285.318-1.945.727.315 1.724.74 2.818.602.499-.063 1.11-.358 1.091-.88-.021-.635-1.186-1.013-1.772-1.342-.682-.383-1.458-1.02-1.5-1.99-.029-.648.219-1.254.545-1.667.969-1.227 3.458-1.662 5.5-.973zM44 22l-1.517 9H40l1.517-9H44zm-3 0c-1.16 3.024-2.397 5.963-3.543 9H35.02L33 23.216c.704.445 1.371 1.006 1.922 1.657l.133.163c.071.09.142.18.209.272l.03.042c.381.538.68 1.123.855 1.745l-.037-.196.237 1.18c.807-1.967 1.476-4.085 2.26-6.079zm16.217 0L59 31h-2.044c-.132-.427-.169-.958-.304-1.381H53.87L53.348 31H51l3.043-7.667c.135-.336.376-.795.479-1 .155-.31.752-.333 1.007-.333h1.688zm-35.93 4.833c-.607 0-1.18.567-1.278 1.266-.098.7.315 1.266.922 1.266.608 0 1.18-.567 1.278-1.266.099-.7-.314-1.266-.922-1.266zm34.327-2.353l-1.136 3.33h1.837l-.7-3.33zm-.378-14.253c4.06 0 4.986 3.191 4.668 5.275-.455 2.977-3.01 5.27-6.28 5.27h-3.408l1.61-10.545h3.41zM31 10l-1.524 10H27l1.524-10H31zm-7.78 0c2.369 0 2.984 1.446 2.725 3.172-.216 1.442-1.193 2.404-2.463 2.747L25.84 20h-3.052l-1.768-3.927L20.43 20H18l1.497-10h3.723zM43 10l-1.524 10H39l1.525-10H43zm7 0l-.333 2.174H46.69l-.262 1.71h2.83l-.333 2.173h-2.83l-.272 1.769H48.8L48.467 20H43l1.533-10H50zm-32 0l-.333 2.174H14.69l-.262 1.71h2.83l-.333 2.173h-2.83l-.272 1.769H16.8L16.467 20H11l1.533-10H18zm21 0l-.33 2.174h-3.012l-.264 1.71h2.74l-.33 2.173h-2.74l-.6 3.943H32l1.52-10H39zM16.922.095c-3.458 6.501-6.873 13.044-10.18 19.692h-3.54l-.862-7.9c-.215-1.96-.62-2.793-2.085-3.004v-.3h4.822l.572 7.164c3.19-5.384 6.434-10.564 9.7-15.652h1.573zm37.71 12.425h-.54l-.91 5.96h.7c1.714 0 3.026-1.186 3.316-3.082.215-1.413-.566-2.878-2.565-2.878zm-32.284-.532h-.717l-.376 2.51h.703c.684 0 1.33-.565 1.438-1.255.107-.69-.364-1.255-1.048-1.255z"/>
        <path fill="#AFBFCE" d="M3.001 4.331L6.868 6.17 7.204 11 7.49 11 11 4.335 11 4 3 4zM34.02 22H30v.192c2.314.443 5.235 2.347 6 4.808l-.863-4.115C35.02 22.25 34.57 22 34.02 22"/>
    </g>
</svg>
